<?xml version="1.0" encoding="UTF-8" standalone="no"?>
<svg
   xmlns:dc="http://purl.org/dc/elements/1.1/"
   xmlns:cc="http://creativecommons.org/ns#"
   xmlns:rdf="http://www.w3.org/1999/02/22-rdf-syntax-ns#"
   xmlns:svg="http://www.w3.org/2000/svg"
   xmlns="http://www.w3.org/2000/svg"
   xmlns:sodipodi="http://sodipodi.sourceforge.net/DTD/sodipodi-0.dtd"
   xmlns:inkscape="http://www.inkscape.org/namespaces/inkscape"
   enable-background="new 0 0 1920 1283"
   version="1.1"
   viewBox="0 0 850 470"
   id="svg869"
   sodipodi:docname="clif.svg"
   width="850"
   height="470"
   inkscape:version="1.0.2-2 (e86c870879, 2021-01-15)">
  <metadata
     id="metadata875">
    <rdf:RDF>
      <cc:Work
         rdf:about="">
        <dc:format>image/svg+xml</dc:format>
        <dc:type
           rdf:resource="http://purl.org/dc/dcmitype/StillImage" />
        <dc:title></dc:title>
      </cc:Work>
    </rdf:RDF>
  </metadata>
  <defs
     id="defs873" />
  <sodipodi:namedview
     pagecolor="#ffffff"
     bordercolor="#666666"
     borderopacity="1"
     objecttolerance="10"
     gridtolerance="10"
     guidetolerance="10"
     inkscape:pageopacity="0"
     inkscape:pageshadow="2"
     inkscape:window-width="1920"
     inkscape:window-height="1017"
     id="namedview871"
     showgrid="false"
     inkscape:zoom="1.289166"
     inkscape:cx="387.8955"
     inkscape:cy="156.81353"
     inkscape:window-x="-8"
     inkscape:window-y="-8"
     inkscape:window-maximized="1"
     inkscape:current-layer="svg869" />
  <path
     d="m 626.53312,470.07942 c -0.12913,-1.74644 -1.3516,-2.63443 -2.37918,-3.59786 -2.01067,-1.88496 -4.04221,-3.7602 -6.18752,-5.44401 -7.2907,-5.72146 -10.00768,-13.22819 -7.49779,-22.96882 1.81775,-7.055 0.32599,-13.27848 -3.82803,-18.90203 -3.05636,-4.13781 -6.33831,-8.04271 -9.46554,-12.1042 -0.94136,-1.22237 -1.80791,-2.5171 -2.69927,-3.78667 -1.69216,-2.4099 -1.57956,-4.87583 -0.0996,-7.32366 0.88151,-1.45794 1.86185,-2.84044 2.76856,-4.27985 1.3579,-2.15625 1.33664,-4.36279 0.14054,-6.60242 -0.88151,-1.65071 -1.96538,-3.12894 -3.16384,-4.48718 -3.57605,-4.05356 -6.41429,-8.69205 -8.98246,-13.59435 -7.82377,-14.93538 -15.37667,-30.05162 -23.61267,-44.71306 -4.30559,-7.6651 -9.5868,-14.52248 -14.43256,-21.74115 -2.75714,-4.10694 -5.53121,-8.21739 -6.19776,-13.55685 -0.50356,-4.03371 -0.63978,-8.03962 0.16457,-12.04333 1.01419,-5.04609 3.23864,-7.27293 7.82535,-8.24077 5.74814,-1.21266 11.4955,-0.88358 17.24404,-0.24615 8.15213,0.90388 16.30938,1.78041 24.43749,2.91146 9.03286,1.25679 18.03106,2.82501 27.05329,4.1837 6.74816,1.01636 13.46759,2.47871 20.33269,2.01244 1.56931,-0.10676 3.14494,-0.21439 4.69851,-0.46937 7.97063,-1.30751 15.64244,0.88227 23.36463,2.45534 6.11824,1.24619 12.20536,2.68384 18.37714,3.59081 2.28627,0.3357 4.53986,0.0212 6.49501,-1.20693 5.06624,-3.18321 10.47147,-3.23085 16.04008,-2.89427 10.41359,0.62906 20.83781,1.04505 31.25889,1.51044 3.21462,0.14381 6.43359,0.03 9.63129,-0.37452 4.45127,-0.56333 8.3915,-2.72443 12.24905,-5.10521 4.35875,-2.69047 8.92144,-4.65571 13.98808,-4.52072 3.73905,0.0997 7.4281,0.79404 11.11439,1.48264 5.55129,1.03755 11.03801,2.49636 16.67317,2.99087 3.39298,0.29777 6.3454,-0.70051 8.95647,-3.0866 0.86379,-0.78962 1.75397,-1.55101 2.56147,-2.40901 4.11583,-4.37161 8.98242,-5.46429 14.39871,-4.20839 0.89683,0.20777 1.80201,0.40363 2.67326,0.71154 4.86668,1.71953 9.63759,1.72615 14.35501,-0.71066 1.04887,-0.54171 2.26343,-0.68023 3.40171,-1.00401 0,68.5959 -0.009,137.19181 0.0374,205.78773 0,1.65424 -0.33269,2.02743 -1.80871,2.02655 -73.29278,-0.0467 -146.5895,-0.041 -219.88622,-0.041 z"
     id="path855"
     style="stroke-width:0.416746" />
  <path
     d="m 1.3560381,289.58913 c 1.632688,-1.3121 4.0395846,-1.66013 6.7670336,-1.38837 4.7547233,0.4739 9.3668913,0.82319 13.6789843,2.45623 3.181105,1.20456 7.938978,1.23207 11.976988,1.81643 15.271506,2.20907 30.696593,1.42631 46.119316,0.67648 23.23805,-1.12954 46.41861,-2.70257 69.84095,-2.32036 12.07229,0.19715 24.0863,0.80319 36.08927,1.41506 17.209,0.87737 34.33766,0.63521 51.39701,-0.69857 14.81549,-1.1583 29.68532,-1.82102 44.64887,-1.93814 16.13787,-0.12629 32.27494,-0.20549 48.41517,-0.0321 4.63343,0.0496 8.80061,0.57978 12.35818,2.21157 3.01807,1.38421 6.62999,1.9173 10.53884,1.94315 5.24776,0.0346 10.49709,0.0183 15.74485,0.055 7.58692,0.0529 14.68553,3.83502 14.7131,7.86178 0.006,0.8261 -0.10003,1.69389 -0.56943,2.47207 -3.46228,5.73523 -6.91196,11.47421 -10.59949,17.16943 -3.21497,4.9654 -9.12273,8.92588 -17.62405,11.61135 -8.814,2.78426 -14.5863,6.73307 -18.87477,11.60885 -5.02171,5.70981 -10.33169,11.37169 -15.96852,16.91019 -5.68646,5.58685 -6.2299,11.22038 -4.90831,17.3074 2.43919,11.23623 3.9246,22.52205 2.97003,33.85456 -0.17879,2.1257 -1.12626,4.21639 -3.4103,5.89737 -9.71894,7.15362 -14.34056,15.51222 -20.35938,23.54238 -2.5085,3.34695 -5.00045,6.69889 -7.31914,10.08335 -2.70854,3.95339 -7.05529,7.41037 -11.26342,10.92445 -1.93907,1.61929 -4.2231,3.23607 -3.4292,5.37011 -89.25837,0 -178.524615,-0.008 -267.7829813,0.0396 -2.6967326,0 -3.2275736,-0.28009 -3.2252106,-1.70682 0.08821,-59.04873 0.07561,-118.0933 0.07561,-177.14204 z"
     id="path857"
     style="stroke-width:0.572952" />
</svg>
