<svg xmlns="http://www.w3.org/2000/svg" xmlns:xlink="http://www.w3.org/1999/xlink" viewBox="0 0 1317.3 500"><defs><style>.cls-1{fill:url(#Degradado_sin_nombre_4);}.cls-2{fill:url(#Degradado_sin_nombre_22);}.cls-3{fill:url(#Degradado_sin_nombre_22-2);}.cls-4{fill:url(#Degradado_sin_nombre_9);}.cls-5{fill:#70781d;}.cls-6{fill:#8f5902;}.cls-7{fill:#d7e0b1;}.cls-8{fill:#bfcd82;}.cls-9{fill:url(#Degradado_sin_nombre_22-3);}</style><linearGradient id="Degradado_sin_nombre_4" x1="567.05" y1="-195.64" x2="567.09" y2="-194.46" gradientTransform="translate(-798050.33 103629.57) scale(1408.5 529.4)" gradientUnits="userSpaceOnUse"><stop offset="0" stop-color="#93c3ea"/><stop offset="1" stop-color="#93c3ea" stop-opacity="0"/></linearGradient><linearGradient id="Degradado_sin_nombre_22" x1="564.63" y1="-196.93" x2="565.12" y2="-195.83" gradientTransform="translate(-110085.13 13163.8) scale(196.11 65.58)" gradientUnits="userSpaceOnUse"><stop offset="0" stop-color="#fff"/><stop offset="1" stop-color="#d4e7f7" stop-opacity="0"/></linearGradient><linearGradient id="Degradado_sin_nombre_22-2" x1="565.42" y1="-198.23" x2="565.6" y2="-196.5" gradientTransform="translate(-192857.69 21110.58) scale(342.59 106.63)" xlink:href="#Degradado_sin_nombre_22"/><linearGradient id="Degradado_sin_nombre_9" x1="567.06" y1="-199.07" x2="567.06" y2="-197.71" gradientTransform="translate(-803535.74 10989.08) scale(1418.17 52.84)" gradientUnits="userSpaceOnUse"><stop offset="0" stop-color="#50653b"/><stop offset="1" stop-color="#73d216"/></linearGradient><linearGradient id="Degradado_sin_nombre_22-3" x1="68.49" y1="78.32" x2="77.43" y2="154.08" gradientTransform="matrix(1, 0, 0, 1, 0, 0)" xlink:href="#Degradado_sin_nombre_22"/></defs><g id="Capa_2" data-name="Capa 2"><g id="Capa_1-2" data-name="Capa 1"><rect class="cls-1" x="0.1" width="1310.4" height="492.5"/><path class="cls-2" d="M676.5,246.5c-12.9,1.5-22.6,11-24.5,21.2-4.4,3.4-9.1,6.4-14.7,2.8-8.7-1.4-18.1,2.7-21.7,9.3-10.5-2.8-22.9,6.7-18.1,15.5,3.2,6.5,14.1,9.1,21.3,5.6,6.9,7.6,22.4,8.4,30.1,1.2,7.1,2.7,16.2,6.1,23.2,1.4,6.6-3.5,15.1-.5,21.6-3.8,5.5-3.9,11.3-5.5,18.2-3.7,7.8-.1,15.5-4.3,18.4-10.3,6.6,5.9,19.9,3.9,23.7-3.4,4.9,1.1,10,5.6,16,2.7,11.2-3.8,12-18.4,1.5-23.2-6.1-3.4-15.4-1.7-18.5,4-3.5,1.9-6.3-4.6-11.3-3.2-6.5-1-.7-8.7-6.3-11.6-4.4-5.2-14.1-6.6-20-2.3-4.6,2.8-3.7,15.1-11.2,8.2a30.1,30.1,0,0,0-19.4-10.3,32.94,32.94,0,0,0-8.3-.1Z"/><path class="cls-3" d="M878.2,12.9C855.7,12.7,836,27,829.5,44.1c-8.5,4.8-17.7,9-26.1,1.7-14.4-4.1-31.8.8-40,11.3C746.2,50,722,63.8,727.5,79.7c3.4,11.9,21.2,18.6,34.8,14.1,9.5,14.4,35.7,19.1,51.1,8.4,11.2,6.2,25.8,13.9,39.3,7.4,12.5-4.6,25.9,2.4,38.3-2,10.7-5.5,21-7.1,32.3-2.5,13.5,1.4,27.8-4.1,34.7-13.8,9.5,11.5,32.9,10.8,41.7-.9,8,2.9,15.3,11.7,26.5,8,20.5-4.2,26.3-28.9,9.9-39.5-9.4-7.2-25.9-6.2-33,2.9-6.6,2.5-9.3-9.1-18.3-7.9-10.9-3.1,1.5-15-7.1-21.2-5.9-9.9-22-14.3-33.5-8.1-8.8,3.8-11.1,25-21.7,11.6a47.13,47.13,0,0,0-29.9-21.6,69.93,69.93,0,0,0-14.4-1.7Z"/><path class="cls-4" d="M.1,472.9c5,0,316.3-14.31,350.9-14.31s605.9-.89,605.9-.89l265.4,4,18.1-6.3,76.9,6.4V500H.1Z"/><path class="cls-5" d="M91.44,451.59c5.58,2.38,9.18,6.06,9.18,10.21,0,4.84-4.88,9.05-12.09,11.28C83,470.7,79.36,467,79.36,462.87,79.36,458,84.2,453.82,91.44,451.59Z"/><path class="cls-6" d="M89.73,457.63l-3.54,27H90Z"/><path class="cls-6" d="M81.89,462.4l6.56,6.78.84-.6-7.4-6.18Z"/><path class="cls-6" d="M96.53,461.53l-6.8,5.24-.87-.47,7.67-4.77Z"/><path class="cls-7" d="M33.24,433.59C19,433.59,9,441.07,9,447.42s14.43,8.16,28.69,8.16c9.62-2.54,11.59,6.42,20.95,7,7.87,0,14.25-3.12,14.25-7,.79-6.55-12.33-5-12.2-8.16C60.7,441.07,47.5,433.59,33.24,433.59Z"/><path class="cls-8" d="M35.82,439.25c-11,0-18.63,5.77-18.63,10.64s11.11,6.3,22.09,6.3c7.39-2,8.92,4.95,16.13,5.38,6,0,11-2.4,11-5.38.61-5.05-9.49-3.87-9.4-6.3,0-4.87-10.19-10.64-21.17-10.64Z"/><path class="cls-6" d="M33,441.93l5.69,50.66H32.58Z"/><path class="cls-6" d="M53.75,453.86,34.64,463l-1-3.54,20.07-5.63Z"/><path class="cls-6" d="M22.09,450.17,33.24,461.6l1.18-3-12.33-8.46Z"/><path class="cls-9" d="M132.9,115.3c-10,5.3-13-11.9-23.8-9.7-2.8-3.2,4-10.4-.4-15.3-2.8-7.6-13.3-12.2-21-8-3.7,3.6-7.3,11.9-13,4.9-8.2-5.5-19.6-.9-26.9-2.4-8.5-7.3-21.5-10.1-32.3-6.2A15.22,15.22,0,0,0,2.1,71.7,14.16,14.16,0,0,0,0,72v76.48c6.51,1.38,13.71,0,18.6-4.17,8.7,4.9,20.2-4.2,27.5,4.2,13.2,8.1,33.7,5.1,41.7-7.6,7-.8,11.1,10.2,19.8,7.7,7,1.9,13.4-7,17.5-5.5,8.2,7.5,23.6,2.9,25.7-7.3C154.1,126,144.6,113.5,132.9,115.3Z"/></g></g></svg>