<?xml version="1.0" encoding="UTF-8" standalone="no"?>
<svg
   xmlns:dc="http://purl.org/dc/elements/1.1/"
   xmlns:cc="http://creativecommons.org/ns#"
   xmlns:rdf="http://www.w3.org/1999/02/22-rdf-syntax-ns#"
   xmlns:svg="http://www.w3.org/2000/svg"
   xmlns="http://www.w3.org/2000/svg"
   xmlns:sodipodi="http://sodipodi.sourceforge.net/DTD/sodipodi-0.dtd"
   xmlns:inkscape="http://www.inkscape.org/namespaces/inkscape"
   viewBox="0 0 186.34 250"
   version="1.1"
   id="svg8"
   sodipodi:docname="diesel.svg"
   inkscape:version="1.0.2-2 (e86c870879, 2021-01-15)">
  <metadata
     id="metadata14">
    <rdf:RDF>
      <cc:Work
         rdf:about="">
        <dc:format>image/svg+xml</dc:format>
        <dc:type
           rdf:resource="http://purl.org/dc/dcmitype/StillImage" />
        <dc:title></dc:title>
      </cc:Work>
    </rdf:RDF>
  </metadata>
  <defs
     id="defs12" />
  <sodipodi:namedview
     pagecolor="#ffffff"
     bordercolor="#666666"
     borderopacity="1"
     objecttolerance="10"
     gridtolerance="10"
     guidetolerance="10"
     inkscape:pageopacity="0"
     inkscape:pageshadow="2"
     inkscape:window-width="1920"
     inkscape:window-height="1017"
     id="namedview10"
     showgrid="false"
     inkscape:zoom="3.4"
     inkscape:cx="93.169998"
     inkscape:cy="125"
     inkscape:window-x="-8"
     inkscape:window-y="-8"
     inkscape:window-maximized="1"
     inkscape:current-layer="svg8" />
  <g
     fill-rule="evenodd"
     id="g6"
     style="fill:#d4aa00">
    <path
       d="m69.644 0.0036c-4.7604-0.043501-6.2472 0.31154-9.4694 8.7206l-9.9525 22.9c-2.0706 3.8191-5.1141 5.8855-6.5223 6.5948l-36.791 18.552c-5.812 2.9271-6.9088 4.1102-6.9088 11.305v175.84c0 3.3754 2.6886 6.0875 6.0392 6.0875h174.24c3.3506 0 6.0633-2.712 6.0633-6.0875v-237.39c0-3.9276-0.90788-6.4981-6.329-6.4981h-108.1c-0.82786 0-1.5907-0.017929-2.2707-0.024109v-4.7e-5zm3.4544 12.03h62.59c2.1684 0 3.3402 1.6461 2.6331 3.696l-5.5319 16.064c-0.70708 2.0499-3.0253 3.696-5.1937 3.696h-62.59c-2.1684 0-3.3401-1.6461-2.6331-3.696l5.5319-16.064c0.70705-2.0499 3.0253-3.696 5.1937-3.696zm-45.728 8.938c-0.93366-0.039444-1.9003 0.16334-2.8022 0.60392l-20.219 9.8559c-2.886 1.4098-4.067 4.8683-2.6572 7.7543l0.9904 2.005c1.4097 2.8859 4.8442 4.067 7.7301 2.6572l20.219-9.8559c2.8859-1.4098 4.067-4.8683 2.6572-7.7543l-0.9663-2.005c-0.96921-1.9841-2.8981-3.1744-4.9521-3.2612zm9.1795 13.214c-0.29461 0.016842-0.58585 0.10295-0.86964 0.24157l-28.142 13.745c-1.1352 0.55452-1.5933 1.9086-1.0387 3.0437 0.55453 1.1352 1.9086 1.6174 3.0437 1.0629l28.142-13.769c1.1352-0.55452 1.5933-1.9086 1.0387-3.0437-0.4159-0.85138-1.2903-1.3308-2.1741-1.2803z"
       fill="#006330"
       id="path2"
       style="fill:#d4aa00" />
  </g>
  <path
     d="M 93.930099,60.605691 H 162.3421 c 4.9049,0 8.8413,3.9606 8.8413,8.8655 V 237.00119 c 0,4.9049 -3.9364,8.8655 -8.8413,8.8655 H 24.022099 c -4.9049,0 -8.8655,-3.9606 -8.8655,-8.8655 v -135.5 c 0,-4.904899 4.7958,-10.178999 9.2762,-12.174999 l 59.498,-26.524 c 1.22,-0.54353 6.1524,-2.1983 10.001,-2.1983 z m 0.8213,6.3532 c -3.3106,0 -6.4602,1.1832 -9.711,2.6331 l -58.822,26.21 c -1.8159,0.80991 -4.4207,4.799699 -4.4207,6.787999 v 131.94 c 0,1.9883 1.611,3.5994 3.5993,3.5994 H 160.117 c 1.9883,0 3.5993,-1.611 3.5993,-3.5994 V 70.549991 c 0,-1.9883 -1.611,-3.5993 -3.5993,-3.5993 H 94.748999 Z m -60.053,37.925999 c 0.79908,0 1.586,0.30564 2.1983,0.91795 l 18.045,18.021 H 131.3977 l 18.045,-18.021 c 0.61229,-0.61231 1.4233,-0.91795 2.2224,-0.91795 0.79909,0 1.586,0.30564 2.1983,0.91795 1.2246,1.2246 1.2246,3.1961 0,4.4207 l -17.755,17.731 v 78.702 l 17.755,17.755 c 1.2246,1.2246 1.2246,3.1961 0,4.4206 -1.2246,1.2246 -3.1961,1.2246 -4.4207,0 l -18.866,-18.866 H 55.763699 l -18.866,18.866 c -1.2246,1.2246 -3.1961,1.2246 -4.4207,0 -1.2246,-1.2246 -1.2246,-3.1961 0,-4.4206 l 17.514,-17.489 c -0.0016,-0.0421 -0.02411,-0.0782 -0.02411,-0.12079 v -79.113 l -17.489,-17.465 c -1.2246,-1.2246 -1.2246,-3.1961 0,-4.4207 0.6123,-0.61231 1.4233,-0.91795 2.2224,-0.91795 h -3.8e-5 z m 24.06,25.026 c -1.5069,0 -2.7056,1.1986 -2.7056,2.7055 v 68.557 c 0,1.5069 1.1986,2.7297 2.7056,2.7297 H 127.3154 c 1.5069,0 2.7055,-1.2228 2.7055,-2.7297 v -68.557 c 0,-1.507 -1.1986,-2.7055 -2.7055,-2.7055 z"
     fill="#999999"
     id="path4" />
</svg>
