<svg xmlns="http://www.w3.org/2000/svg" viewBox="0 0 338.35 55.05"><defs><style>.cls-1{fill:#007575;}.cls-2{fill:#fff;}</style></defs><g id="Capa_2" data-name="Capa 2"><g id="Capa_1-2" data-name="Capa 1"><path class="cls-1" d="M8.47,31V47H33.19v7H0V2.81H33v7H8.47V24.22H29.64V31Z"/><path class="cls-1" d="M62.56,47.48a8.37,8.37,0,0,0,2.58-1.36,6.64,6.64,0,0,0,1.74-2.07,5.36,5.36,0,0,0,.66-2.64h7.91a10.82,10.82,0,0,1-1.25,5.22,13.38,13.38,0,0,1-3.47,4.21,17.06,17.06,0,0,1-5.08,2.86,17.61,17.61,0,0,1-6,1,18,18,0,0,1-7.68-1.53,15.61,15.61,0,0,1-5.46-4.13A17.67,17.67,0,0,1,43.14,43,23.75,23.75,0,0,1,42,35.61V34.38A24.14,24.14,0,0,1,43.12,27a17.33,17.33,0,0,1,3.32-6.08,15.92,15.92,0,0,1,5.5-4.13,18,18,0,0,1,7.65-1.53,18.81,18.81,0,0,1,6.38,1,15.14,15.14,0,0,1,5,3A13.26,13.26,0,0,1,74.3,23.8a13.66,13.66,0,0,1,1.15,5.8H67.54A7.57,7.57,0,0,0,67,26.68a7.33,7.33,0,0,0-1.64-2.39,8.1,8.1,0,0,0-2.58-1.61,8.58,8.58,0,0,0-3.22-.6,8.26,8.26,0,0,0-4.38,1.07A8.12,8.12,0,0,0,52.38,26a11.69,11.69,0,0,0-1.53,3.93,23.35,23.35,0,0,0-.44,4.5v1.23a23.82,23.82,0,0,0,.44,4.56,11.64,11.64,0,0,0,1.5,3.92,7.77,7.77,0,0,0,2.77,2.81A8.48,8.48,0,0,0,59.52,48,10,10,0,0,0,62.56,47.48Z"/><path d="M151.49,0V47H163v7H131V47h12V7H131V0Z"/><path d="M197,48.69a14.28,14.28,0,0,1-4.72,4.45,12.18,12.18,0,0,1-6.22,1.6,15,15,0,0,1-5.39-.93,10.73,10.73,0,0,1-4.21-2.9,14,14,0,0,1-2.67-5,25.2,25.2,0,0,1-.95-7.36V16h8.41V38.57a21.08,21.08,0,0,0,.38,4.41,6.85,6.85,0,0,0,1.23,2.83A4.63,4.63,0,0,0,185,47.36a9.31,9.31,0,0,0,3.06.45,12.2,12.2,0,0,0,3.27-.4,9.27,9.27,0,0,0,2.53-1.11,7.86,7.86,0,0,0,1.61-1.49,9.41,9.41,0,0,0,1.2-1.92V16h8.44V54h-7.63Z"/><path d="M235.39,47.48A8.37,8.37,0,0,0,238,46.12a6.64,6.64,0,0,0,1.74-2.07,5.35,5.35,0,0,0,.65-2.64h7.91A10.7,10.7,0,0,1,247,46.63a13.38,13.38,0,0,1-3.47,4.21,17.06,17.06,0,0,1-5.08,2.86,17.61,17.61,0,0,1-6,1,18,18,0,0,1-7.68-1.53,15.74,15.74,0,0,1-5.47-4.13A17.83,17.83,0,0,1,216,43a23.74,23.74,0,0,1-1.12-7.4V34.38A24.14,24.14,0,0,1,216,27a17.33,17.33,0,0,1,3.32-6.08,15.92,15.92,0,0,1,5.5-4.13,18,18,0,0,1,7.65-1.53,18.85,18.85,0,0,1,6.38,1,15.09,15.09,0,0,1,5,3,13.28,13.28,0,0,1,3.29,4.53,13.51,13.51,0,0,1,1.14,5.8h-7.91a7.39,7.39,0,0,0-.58-2.92,7.15,7.15,0,0,0-1.63-2.39,8,8,0,0,0-2.59-1.61,8.49,8.49,0,0,0-3.21-.6A8.26,8.26,0,0,0,228,23.15a8.12,8.12,0,0,0-2.76,2.8,11.28,11.28,0,0,0-1.53,3.93,23.35,23.35,0,0,0-.44,4.5v1.23a23.82,23.82,0,0,0,.44,4.56,11.44,11.44,0,0,0,1.5,3.92A7.77,7.77,0,0,0,228,46.9a8.46,8.46,0,0,0,4.4,1.05A10,10,0,0,0,235.39,47.48Z"/><path d="M281.11,16V47h11.18v7H260.93V47h11.71V23H260.93V16Zm-8.9-11.72a4.34,4.34,0,0,1,1-1.5,4.55,4.55,0,0,1,1.53-.93,5.84,5.84,0,0,1,2-.33,4.7,4.7,0,0,1,3.07,1,3.6,3.6,0,0,1,1.35,2.48,3.61,3.61,0,0,1-.52,2.69,3.8,3.8,0,0,1-2.25,1.53,3.63,3.63,0,0,1-1.76.88,4.44,4.44,0,0,1-2.25-.18,3.39,3.39,0,0,1-1.92-1.38,4.24,4.24,0,0,1-.65-2.34A5,5,0,0,1,272.21,4.24Z"/><polygon points="330.89 1.23 321.29 10.83 314.82 10.83 321.33 1.23 330.89 1.23"/><circle class="cls-1" cx="102.35" cy="35.05" r="20"/><path class="cls-2" d="M102.35,21.2A13.85,13.85,0,1,0,116.2,35.05,13.85,13.85,0,0,0,102.35,21.2Zm2.82,13.85a2.82,2.82,0,1,1-2.82-2.82A2.82,2.82,0,0,1,105.17,35.05Zm-7.41-.42-7.39-2.39a12.81,12.81,0,0,1,.63-2l7.4,2.4A4.59,4.59,0,0,0,97.76,34.63Zm2.78,4.66L96,45.58a13.2,13.2,0,0,1-1.65-1.21l4.56-6.29A4.54,4.54,0,0,0,100.54,39.29Zm5.29-1.21,4.56,6.29a13.3,13.3,0,0,1-1.66,1.21l-4.56-6.29A4.62,4.62,0,0,0,105.83,38.08ZM107,34.63a4.59,4.59,0,0,0-.64-2l7.39-2.4a11.09,11.09,0,0,1,.63,1.95Zm5.78-6.19-7.3,2.37V23.13A12.31,12.31,0,0,1,112.73,28.44Zm-9.35-5.65v7.76a4.44,4.44,0,0,0-2,0V22.79c.34,0,.68-.05,1-.05S103,22.76,103.38,22.79Zm-4.1.34v7.68L92,28.44A12.37,12.37,0,0,1,99.28,23.13ZM90.05,35.05c0-.25,0-.51,0-.76l7.31,2.38-4.52,6.21A12.25,12.25,0,0,1,90.05,35.05ZM97.84,46.5l4.51-6.22,4.52,6.22a12.28,12.28,0,0,1-9,0Zm14-3.62-4.52-6.21,7.31-2.38c0,.25,0,.51,0,.76A12.25,12.25,0,0,1,111.85,42.88Z"/><circle cx="318.35" cy="35.05" r="20"/><path class="cls-2" d="M318.35,21.2A13.85,13.85,0,1,0,332.2,35.05,13.85,13.85,0,0,0,318.35,21.2Zm2.82,13.85a2.82,2.82,0,1,1-2.82-2.82A2.82,2.82,0,0,1,321.17,35.05Zm-7.41-.42-7.39-2.39a12.81,12.81,0,0,1,.63-2l7.4,2.4A4.59,4.59,0,0,0,313.76,34.63Zm2.78,4.66L312,45.58a13.2,13.2,0,0,1-1.65-1.21l4.56-6.29A4.54,4.54,0,0,0,316.54,39.29Zm5.29-1.21,4.56,6.29a13.3,13.3,0,0,1-1.66,1.21l-4.56-6.29A4.62,4.62,0,0,0,321.83,38.08ZM323,34.63a4.59,4.59,0,0,0-.64-2l7.39-2.4a11.09,11.09,0,0,1,.63,1.95Zm5.78-6.19-7.3,2.37V23.13A12.31,12.31,0,0,1,328.73,28.44Zm-9.35-5.65v7.76a4.44,4.44,0,0,0-2.05,0V22.79c.34,0,.68-.05,1-.05S319,22.76,319.38,22.79Zm-4.1.34v7.68L308,28.44A12.37,12.37,0,0,1,315.28,23.13Zm-9.23,11.92c0-.25,0-.51,0-.76l7.31,2.38-4.52,6.21A12.25,12.25,0,0,1,306.05,35.05Zm7.79,11.45,4.51-6.22,4.52,6.22a12.28,12.28,0,0,1-9,0Zm14-3.62-4.52-6.21,7.31-2.38c0,.25,0,.51,0,.76A12.25,12.25,0,0,1,327.85,42.88Z"/></g></g></svg>