<?xml version="1.0" encoding="UTF-8" standalone="no"?>
<svg
   xmlns:dc="http://purl.org/dc/elements/1.1/"
   xmlns:cc="http://creativecommons.org/ns#"
   xmlns:rdf="http://www.w3.org/1999/02/22-rdf-syntax-ns#"
   xmlns:svg="http://www.w3.org/2000/svg"
   xmlns="http://www.w3.org/2000/svg"
   xmlns:sodipodi="http://sodipodi.sourceforge.net/DTD/sodipodi-0.dtd"
   xmlns:inkscape="http://www.inkscape.org/namespaces/inkscape"
   viewBox="0 0 200 150"
   version="1.1"
   id="svg4"
   sodipodi:docname="electric.svg"
   width="200"
   height="150"
   inkscape:version="1.0.2-2 (e86c870879, 2021-01-15)">
  <metadata
     id="metadata10">
    <rdf:RDF>
      <cc:Work
         rdf:about="">
        <dc:format>image/svg+xml</dc:format>
        <dc:type
           rdf:resource="http://purl.org/dc/dcmitype/StillImage" />
        <dc:title />
      </cc:Work>
    </rdf:RDF>
  </metadata>
  <defs
     id="defs8" />
  <sodipodi:namedview
     pagecolor="#ffffff"
     bordercolor="#666666"
     borderopacity="1"
     objecttolerance="10"
     gridtolerance="10"
     guidetolerance="10"
     inkscape:pageopacity="0"
     inkscape:pageshadow="2"
     inkscape:window-width="1920"
     inkscape:window-height="1017"
     id="namedview6"
     showgrid="false"
     showguides="false"
     inkscape:zoom="3.178125"
     inkscape:cx="180.73202"
     inkscape:cy="81.768451"
     inkscape:window-x="-8"
     inkscape:window-y="-8"
     inkscape:window-maximized="1"
     inkscape:current-layer="svg4"
     inkscape:document-rotation="0" />
  <path
     d="m 97.439446,35.592089 c 0,1.534548 -1.38274,2.728798 -3.142933,2.728798 H 61.408467 c -1.771919,0 -3.142926,-1.19425 -3.142926,-2.728798 V 11.25249 c 0,-1.5345476 1.372499,-2.7287986 3.142926,-2.7287986 h 32.888046 c 1.760203,0 3.142933,1.194264 3.142933,2.7287986 z m 38.339874,3.108904 c -4.16129,-0.802588 -5.66984,-2.678717 -5.66984,-4.404602 v -6.28972 c 0,0 2.76688,0.541907 3.4297,0.692152 1.34906,0.310762 2.20649,2.126536 2.24014,3.71245 0.0454,1.584629 0,6.28972 0,6.28972 z m 8.37822,38.213452 c 0,-0.06035 -1.15446,-7.725389 -1.15446,-7.725389 v -35.39348 c 0,-3.792067 -1.41782,-6.87272 -4.34421,-9.460263 L 119.98131,8.0228764 c -1.292,0 -4.85778,3.1204616 -4.85778,3.1204616 0,1.133897 9.27075,9.209856 9.27075,9.209856 l -0.27509,13.733882 c 0,4.875881 4.51539,8.828466 10.09307,8.828466 l 2.5035,0.02953 -0.89107,26.245263 1.24664,8.999257 5.61278,26.556018 c 0.2063,4.31343 -4.28713,6.88171 -7.83098,6.88171 -3.28047,0 -7.08767,-2.37823 -7.08767,-5.44733 l 0.0688,-46.539807 c 0,-5.657923 -5.23527,-10.252578 -11.68208,-10.252578 h -11.27095 c 0.78865,-0.03981 0.82232,-30.47779 0.82232,-36.939584 v -1.194239 c 0,-5.5076784 -5.12116,-9.9918969 -11.408476,-9.9918969 H 61.408481 c -6.287313,0 -11.408466,4.4842185 -11.408466,9.9918969 V 116.74336 l 55.703525,0.81286 0.057,-61.62847 h 10.51739 c 2.41133,0 4.37785,1.725885 4.37785,3.842149 v 46.410121 c 0,6.23065 6.6297,11.68824 14.1973,11.68824 7.14474,0 15.1469,-4.98631 15.1469,-11.68824 -0.12584,-1.54611 -5.8425,-29.265562 -5.8425,-29.265562 z"
     id="path2"
     style="fill:#008000;stroke-width:1.37075" />
  <text
     xml:space="preserve"
     style="font-style:normal;font-weight:normal;font-size:31.0335px;line-height:1.25;font-family:sans-serif;fill:#008000;fill-opacity:1;stroke:none;stroke-width:0.775839"
     x="4.7869124"
     y="162.39819"
     id="text841"
     transform="scale(1.1329492,0.8826521)"><tspan
       sodipodi:role="line"
       id="tspan839"
       x="4.7869124"
       y="162.39819"
       style="fill:#008000;stroke-width:0.775839">Electricitat</tspan></text>
</svg>
