<?xml version="1.0" encoding="UTF-8"?>
<svg viewBox="0 0 1168.2 540.43" xmlns="http://www.w3.org/2000/svg" xmlns:xlink="http://www.w3.org/1999/xlink">
 <defs>
  <linearGradient id="ai">
   <stop stop-color="#fff" offset="0"/>
   <stop stop-color="#fff" stop-opacity="0" offset="1"/>
  </linearGradient>
  <linearGradient id="aw" x1=".4574" x2=".5" y1=".11696" y2="1.3864">
   <stop stop-color="#93c3ea" offset="0"/>
   <stop stop-color="#93c3ea" stop-opacity="0" offset="1"/>
  </linearGradient>
  <linearGradient id="an" x1=".40745" x2=".50889" y1=".15527" y2="1.0152" xlink:href="#a"/>
  <linearGradient id="ad">
   <stop stop-color="#448552" offset="0"/>
   <stop stop-color="#8f5902" offset="1"/>
  </linearGradient>
  <linearGradient id="z" x1=".30998" x2=".5" y1=".88027" xlink:href="#ad"/>
  <linearGradient id="am" x1=".46181" x2=".50791" y1=".17906" y2="1.0154" xlink:href="#ai"/>
  <linearGradient id="ae" x1=".4386" x2=".5" y1=".26923" y2="2.5385" xlink:href="#av"/>
  <linearGradient id="ag" x1=".34386" x2=".5" y1=".5" y2="1.1277">
   <stop stop-color="#8a9da5" offset="0"/>
   <stop stop-color="#74848a" offset="1"/>
  </linearGradient>
  <linearGradient id="ah" x1=".4386" x2=".52479" y1=".26923" y2="2.0134">
   <stop stop-color="#729fcf" offset="0"/>
   <stop offset="1"/>
  </linearGradient>
  <linearGradient id="ab" x1=".5" y1=".76721" xlink:href="#ad"/>
  <linearGradient id="ac" x1=".5" x2=".5" y2="1.57" xlink:href="#ad"/>
  <linearGradient id="at" x1=".08595" x2="-.005294" y1=".17915" y2="1.0153" xlink:href="#ai"/>
  <linearGradient id="av">
   <stop stop-color="#8a9da5" offset="0"/>
   <stop offset="1"/>
  </linearGradient>
  <linearGradient id="ao" x1=".5" x2=".69525" y1="-.41036" y2="1.4513" xlink:href="#a"/>
  <linearGradient id="ap" x1=".24805" x2=".69525" y1="-1e-6" y2="1.4513" xlink:href="#a"/>
  <linearGradient id="al" x1=".4321" x2=".4321" y1="1.6373" y2="-.14216">
   <stop stop-color="#555753" offset="0"/>
   <stop stop-color="#a4cded" offset="1"/>
  </linearGradient>
  <linearGradient id="ar" x1=".21233" x2=".74132" y1=".090916" y2="1.274" xlink:href="#a"/>
  <linearGradient id="a">
   <stop stop-color="#fff" offset="0"/>
   <stop stop-color="#d4e7f7" stop-opacity="0" offset="1"/>
  </linearGradient>
  <linearGradient id="au" x1=".47706" x2=".5" y1=".087789" y2="1">
   <stop stop-color="#99bdd8" offset="0"/>
   <stop stop-color="#778a96" offset="1"/>
  </linearGradient>
  <linearGradient id="aq" x1=".44025" x2=".74132" y1="-.38288" y2="1.274" xlink:href="#a"/>
  <linearGradient id="w" x1="1" x2="-.3421" y1="1.2107" y2=".24528" xlink:href="#af"/>
  <linearGradient id="aj" x1=".5" x2=".5" y1="-.65994" y2="1">
   <stop offset="0"/>
   <stop stop-color="#204a87" offset="1"/>
  </linearGradient>
  <linearGradient id="ak" x1="1" x2="-.34211" y1="1.2107" y2=".24528" xlink:href="#af"/>
  <linearGradient id="as" x1=".45712" x2=".45712" y1=".31697" y2="1.9354">
   <stop stop-color="#50653b" offset="0"/>
   <stop stop-color="#73d216" offset="1"/>
  </linearGradient>
  <linearGradient id="af">
   <stop stop-color="#898e79" offset="0"/>
   <stop stop-color="#a8ad9b" offset="1"/>
  </linearGradient>
 </defs>
 <rect x="2.1658" y="1.8547" width="1408.5" height="529.4" fill="url(#aw)"/>
 <path d="m169.08 281.48v17.152h-11.516v207.54h114.12v-207.54h-13.61v-17.152h-88.99z" fill="url(#au)"/>
 <path d="m621.86 144.61c-20.795 2.3546-36.641 17.85-39.677 34.377-7.0731 5.4255-14.804 10.351-23.829 4.5714-14.032-2.1874-29.226 4.3983-35.074 15.046-17.066-4.558-37.123 10.88-29.342 25.023 5.1839 10.589 22.758 14.797 34.504 9.0408 11.194 12.236 36.212 13.543 48.651 1.9085 11.446 4.4323 26.163 9.8981 37.531 2.3261 10.741-5.6387 24.361-0.77336 35.018-6.174 8.9206-6.2885 18.236-8.9723 29.416-5.9596 12.696-0.22214 25.013-6.9336 29.694-16.67 10.695 9.5562 32.199 6.2598 38.423-5.5494 7.9338 1.7851 16.12 9.0234 25.843 4.3827 18.202-6.1706 19.36-29.698 2.4852-37.599-9.8925-5.5598-24.939-2.7425-30.004 6.4312-5.6662 3.0788-10.14-7.3936-18.278-5.1906-10.556-1.6177-1.1504-14.043-10.165-18.814-7.1099-8.4362-22.776-10.743-32.297-3.6902-7.4437 4.5069-5.9769 24.368-18.104 13.199-7.3886-8.7691-18.28-15.126-31.321-16.588-4.4502-0.59598-9.0159-0.6375-13.474-0.072601v-1.07e-4z" fill="url(#aq)"/>
 <path d="m630.29 173.3c-13.813 1.5641-24.339 11.857-26.356 22.835-4.6983 3.6039-9.8337 6.8757-15.828 3.0365-9.3206-1.4529-19.414 2.9216-23.298 9.9945-11.336-3.0277-24.659 7.2271-19.49 16.622 3.4434 7.0336 15.117 9.8292 22.92 6.0055 7.4359 8.1279 24.054 8.9961 32.316 1.2677 7.603 2.9441 17.379 6.5749 24.93 1.5451 7.135-3.7454 16.182-0.51361 23.261-4.1012 5.9255-4.1771 12.113-5.9598 19.54-3.9586 8.4334-0.14761 16.615-4.6055 19.724-11.073 7.1041 6.3477 21.389 4.1582 25.523-3.6862 5.2701 1.1857 10.708 5.9939 17.166 2.9112 12.09-4.0988 12.86-19.727 1.6506-24.975-6.5709-3.6932-16.566-1.8218-19.93 4.2718-3.7639 2.0452-6.7357-4.9113-12.141-3.4478-7.0115-1.0747-0.76428-9.3285-6.752-12.497-4.7231-5.6037-15.129-7.136-21.454-2.4512-4.9444 2.9936-3.9702 16.187-12.026 8.7677-4.9077-5.825-12.143-10.048-20.805-11.019-2.956-0.396-5.9888-0.42355-8.9504-0.048752v4.12e-4z" fill="url(#ar)"/>
 <path d="m987.94 97.456c-24.143-0.23999-45.406 15.16-52.316 33.532-9.1794 5.1781-19.002 9.6952-28.057 1.8555-15.502-4.4569-34.16 0.90135-43.038 12.191-18.457-7.5789-44.497 7.1653-38.605 24.343 3.6816 12.77 22.79 20.023 37.353 15.124 10.173 15.487 38.354 20.485 54.934 8.9972 12.091 6.6472 27.686 14.929 42.2 7.9121 13.396-4.9058 27.869 2.5388 41.119-2.1082 11.461-5.9005 22.617-7.6457 34.702-2.6503 14.486 1.5288 29.899-4.3759 37.259-14.792 10.165 12.369 35.313 11.638 44.861-0.92017 8.6503 3.1435 16.448 12.525 28.476 8.611 21.992-4.464 28.229-31.06 10.689-42.414-10.088-7.7115-27.791-6.6188-35.47 3.1042-7.0885 2.7067-9.9869-9.832-19.704-8.4684-11.667-3.3211 1.6284-16.134-7.6266-22.824-6.3224-10.593-23.657-15.414-35.961-8.729-9.4083 4.0813-11.894 26.877-23.35 12.472-6.5696-11.01-17.628-19.769-32.154-23.262-4.9367-1.3023-10.121-1.9902-15.31-1.9734z" fill="url(#ao)"/>
 <path d="m991.53 131.27c-16.037-0.1593-30.161 10.07-34.751 22.274-6.0972 3.4396-12.622 6.4401-18.637 1.2325-10.297-2.9604-22.691 0.59878-28.588 8.0979-12.26-5.0343-29.557 4.7597-25.643 16.17 2.4454 8.4828 15.138 13.3 24.812 10.047 6.7574 10.288 25.477 13.607 36.49 5.9766 8.0316 4.4154 18.39 9.9166 28.031 5.2555 8.8983-3.2588 18.512 1.6864 27.313-1.4004 7.613-3.9194 15.023-5.0787 23.051-1.7605 9.6225 1.0156 19.86-2.9066 24.749-9.8258 6.7524 8.2163 23.457 7.7305 29.799-0.61121 5.746 2.0881 10.925 8.3198 18.915 5.7199 14.608-2.9653 18.751-20.632 7.1005-28.174-6.7014-5.1224-18.46-4.3966-23.561 2.062-4.7084 1.7979-6.6338-6.5311-13.088-5.6252-7.7498-2.206 1.0817-10.717-5.0658-15.161-4.1998-7.0362-15.714-10.239-23.888-5.7983-6.2498 2.7111-7.9004 17.853-15.511 8.2846-4.3637-7.3137-11.709-13.132-21.359-15.452-3.2792-0.86504-6.7228-1.3219-10.17-1.3109z" fill="url(#ap)"/>
 <path d="m742.71 97.456v39.778h-24.28v290.38h-29.136v-171.04h-116.54v91.489h-16.996v-212.81h-106.83v149.17h-31.564v63.645h-2.428v79.556h-53.416v-157.12h-2.428v71.6l2.428 161.1v-1.9889h978.49v-3.9778h2.4281v-232.7h-63.129v-153.14h-41.276v153.14h-19.424v159.11h-19.424v-161.1h-70.412v-70.668l-121.4-32.755v59.667h-101.98v135.24h-55.844v-216.79h-19.424v-39.778h-87.409z" fill="url(#al)"/>
 <g transform="matrix(.56806 0 0 .46532 1614.6 1611)">
  <path d="m-1430.3-2808.7h310.89v414.24h-310.89v-414.24z" fill="#349ba4"/>
  <g transform="matrix(2.3394 0 0 1 2146.1 -842.3)">
   <path d="m-1527.3-1949.7v29h7.2534v-29h-7.2534zm9.4441 0v29h7.2534v-29h-7.2534zm9.4307 0v29h7.2668v-29h-7.2668zm9.4442 0v29h7.2533v-29h-7.2533zm9.4442 0v29h7.2534v-29h-7.2534zm9.4305 0v29h7.2668v-29h-7.2668zm9.4442 0v29h7.2534v-29h-7.2534zm9.4441 0v29h7.2534v-29h-7.2534zm9.4308 0v29h7.2667v-29h-7.2667zm9.4442 0v29h7.2534v-29h-7.2534zm9.444 0v29h7.2535v-29h-7.2535zm9.4308 0v29h7.267v-29h-7.267zm9.4442 0v29h7.2534v-29h-7.2534zm9.444 0v29h7.2535v-29h-7.2535z" fill="#72cccf"/>
  </g>
  <path d="m-1426.9-2792v29h16.969v-29h-16.969zm22.094 0v29h16.969v-29h-16.969zm22.062 0v29h17v-29h-17zm22.094 0v29h16.969v-29h-16.969zm22.094 0v29h16.969v-29h-16.969zm22.062 0v29h17v-29h-17zm22.094 0v29h16.969v-29h-16.969zm22.094 0v29h16.969v-29h-16.969zm22.062 0v29h17v-29h-17zm22.094 0v29h16.969v-29h-16.969zm22.094 0v29h16.969v-29h-16.969zm22.062 0v29h17v-29h-17zm22.094 0v29h16.969v-29h-16.969zm22.094 0v29h16.969v-29h-16.969zm-287.09 36.25v29h16.969v-29h-16.969zm22.094 0v29h16.969v-29h-16.969zm22.062 0v29h17v-29h-17zm22.094 0v29h16.969v-29h-16.969zm22.094 0v29h16.969v-29h-16.969zm22.062 0v29h17v-29h-17zm22.094 0v29h16.969v-29h-16.969zm22.094 0v29h16.969v-29h-16.969zm22.062 0v29h17v-29h-17zm22.094 0v29h16.969v-29h-16.969zm22.094 0v29h16.969v-29h-16.969zm22.062 0v29h17v-29h-17zm22.094 0v29h16.969v-29h-16.969zm22.094 0v29h16.969v-29h-16.969zm-287.09 36.25v29h16.969v-29h-16.969zm22.094 0v29h16.969v-29h-16.969zm22.062 0v29h17v-29h-17zm22.094 0v29h16.969v-29h-16.969zm22.094 0v29h16.969v-29h-16.969zm22.062 0v29h17v-29h-17zm22.094 0v29h16.969v-29h-16.969zm22.094 0v29h16.969v-29h-16.969zm22.062 0v29h17v-29h-17zm22.094 0v29h16.969v-29h-16.969zm22.094 0v29h16.969v-29h-16.969zm22.062 0v29h17v-29h-17zm22.094 0v29h16.969v-29h-16.969zm22.094 0v29h16.969v-29h-16.969zm-287.09 36.25v29h16.969v-29h-16.969zm22.094 0v29h16.969v-29h-16.969zm22.062 0v29h17v-29h-17zm22.094 0v29h16.969v-29h-16.969zm22.094 0v29h16.969v-29h-16.969zm22.062 0v29h17v-29h-17zm22.094 0v29h16.969v-29h-16.969zm22.094 0v29h16.969v-29h-16.969zm22.062 0v29h17v-29h-17zm22.094 0v29h16.969v-29h-16.969zm22.094 0v29h16.969v-29h-16.969zm22.062 0v29h17v-29h-17zm22.094 0v29h16.969v-29h-16.969zm22.094 0v29h16.969v-29h-16.969zm-287.09 36.25v29h16.969v-29h-16.969zm22.094 0v29h16.969v-29h-16.969zm22.062 0v29h17v-29h-17zm22.094 0v29h16.969v-29h-16.969zm22.094 0v29h16.969v-29h-16.969zm22.062 0v29h17v-29h-17zm22.094 0v29h16.969v-29h-16.969zm22.094 0v29h16.969v-29h-16.969zm22.062 0v29h17v-29h-17zm22.094 0v29h16.969v-29h-16.969zm22.094 0v29h16.969v-29h-16.969zm22.062 0v29h17v-29h-17zm22.094 0v29h16.969v-29h-16.969zm22.094 0v29h16.969v-29h-16.969zm-287.09 36.25v29h16.969v-29h-16.969zm22.094 0v29h16.969v-29h-16.969zm22.062 0v29h17v-29h-17zm22.094 0v29h16.969v-29h-16.969zm22.094 0v29h16.969v-29h-16.969zm22.062 0v29h17v-29h-17zm22.094 0v29h16.969v-29h-16.969zm22.094 0v29h16.969v-29h-16.969zm22.062 0v29h17v-29h-17zm22.094 0v29h16.969v-29h-16.969zm22.094 0v29h16.969v-29h-16.969zm22.062 0v29h17v-29h-17zm22.094 0v29h16.969v-29h-16.969zm22.094 0v29h16.969v-29h-16.969zm-287.09 36.25v29h16.969v-29h-16.969zm22.094 0v29h16.969v-29h-16.969zm22.062 0v29h17v-29h-17zm22.094 0v29h16.969v-29h-16.969zm22.094 0v29h16.969v-29h-16.969zm22.062 0v29h17v-29h-17zm22.094 0v29h16.969v-29h-16.969zm22.094 0v29h16.969v-29h-16.969zm22.062 0v29h17v-29h-17zm22.094 0v29h16.969v-29h-16.969zm22.094 0v29h16.969v-29h-16.969zm22.062 0v29h17v-29h-17zm22.094 0v29h16.969v-29h-16.969zm22.094 0v29h16.969v-29h-16.969zm-287.09 36.25v29h16.969v-29h-16.969zm22.094 0v29h16.969v-29h-16.969zm22.062 0v29h17v-29h-17zm22.094 0v29h16.969v-29h-16.969zm22.094 0v29h16.969v-29h-16.969zm22.062 0v29h17v-29h-17zm22.094 0v29h16.969v-29h-16.969zm22.094 0v29h16.969v-29h-16.969zm22.062 0v29h17v-29h-17zm22.094 0v29h16.969v-29h-16.969zm22.094 0v29h16.969v-29h-16.969zm22.062 0v29h17v-29h-17zm22.094 0v29h16.969v-29h-16.969zm22.094 0v29h16.969v-29h-16.969zm-287.09 36.25v29h16.969v-29h-16.969zm22.094 0v29h16.969v-29h-16.969zm22.062 0v29h17v-29h-17zm22.094 0v29h16.969v-29h-16.969zm22.094 0v29h16.969v-29h-16.969zm22.062 0v29h17v-29h-17zm22.094 0v29h16.969v-29h-16.969zm22.094 0v29h16.969v-29h-16.969zm22.062 0v29h17v-29h-17zm22.094 0v29h16.969v-29h-16.969zm22.094 0v29h16.969v-29h-16.969zm22.062 0v29h17v-29h-17zm22.094 0v29h16.969v-29h-16.969zm22.094 0v29h16.969v-29h-16.969zm-287.09 36.25v71.437h16.969v-71.437h-16.969zm22.094 0v71.437h16.969v-71.437h-16.969zm22.062 0v71.437h17v-71.437h-17zm22.094 0v71.437h16.969v-71.437h-16.969zm22.094 0v71.437h16.969v-71.437h-16.969zm22.062 0v71.437h17v-71.437h-17zm22.094 0v71.437h16.969v-71.437h-16.969zm22.094 0v71.437h16.969v-71.437h-16.969zm22.062 0v71.437h17v-71.437h-17zm22.094 0v71.437h16.969v-71.437h-16.969zm22.094 0v71.437h16.969v-71.437h-16.969zm22.062 0v71.437h17v-71.437h-17zm22.094 0v71.437h16.969v-71.437h-16.969zm22.094 0v71.437h16.969v-71.437h-16.969z" fill="url(#aj)"/>
 </g>
 <path d="m-0.2623 510.31l379.98-23.867 420.02 4.6464 0.0303 5.1819 230.72-2.3483 285.23 4.343 19.49-6.8069 82.7 6.9173v40.909h-1413.3l-4.856-28.975h1.22e-4z" fill="url(#as)"/>
 <g transform="matrix(1.0117 0 0 .35425 2506.6 1378.2)">
  <rect x="-1955.7" y="-3076.9" width="160.72" height="316" fill="url(#ak)"/>
  <g transform="matrix(-1 0 0 1 -2166.5 0)">
   <rect x="-399.81" y="-2961.9" width="64.973" height="472" fill="url(#w)"/>
   <path d="m-390.4-2945.9h8.5491v40h-8.5491v-40z" fill="#6b6f57"/>
   <path d="m-390.4-2895.9h8.5491v40h-8.5491v-40z" fill="#6b6f57"/>
   <path d="m-390.4-2845.9h8.5491v40h-8.5491v-40z" fill="#6b6f57"/>
   <path d="m-390.4-2795.9h8.5491v40h-8.5491v-40z" fill="#6b6f57"/>
   <path d="m-390.4-2745.9h8.5491v40h-8.5491v-40z" fill="#6b6f57"/>
   <path d="m-390.4-2695.9h8.5491v40h-8.5491v-40z" fill="#6b6f57"/>
   <path d="m-390.4-2645.9h8.5491v40h-8.5491v-40z" fill="#6b6f57"/>
   <g fill="#6b6f57">
    <path d="m-364.4-3063.9h8.5491v40h-8.5491v-40z"/>
    <path d="m-364.4-3013.9h8.5491v40h-8.5491v-40z"/>
    <path d="m-351.4-3063.9h8.5491v40h-8.5491v-40z"/>
    <path d="m-351.4-3013.9h8.5491v40h-8.5491v-40z"/>
   </g>
   <path d="m-377.4-2945.9h8.5491v40h-8.5491v-40z" fill="#6b6f57"/>
   <path d="m-377.4-2895.9h8.5491v40h-8.5491v-40z" fill="#6b6f57"/>
   <path d="m-377.4-2845.9h8.5491v40h-8.5491v-40z" fill="#6b6f57"/>
   <path d="m-377.4-2795.9h8.5491v40h-8.5491v-40z" fill="#6b6f57"/>
   <path d="m-377.4-2745.9h8.5491v40h-8.5491v-40z" fill="#6b6f57"/>
   <path d="m-377.4-2695.9h8.5491v40h-8.5491v-40z" fill="#6b6f57"/>
   <path d="m-377.4-2645.9h8.5491v40h-8.5491v-40z" fill="#6b6f57"/>
   <path d="m-364.4-2945.9h8.5491v40h-8.5491v-40z" fill="#6b6f57"/>
   <path d="m-364.4-2895.9h8.5491v40h-8.5491v-40z" fill="#6b6f57"/>
   <path d="m-364.4-2845.9h8.5491v40h-8.5491v-40z" fill="#6b6f57"/>
   <path d="m-364.4-2795.9h8.5491v40h-8.5491v-40z" fill="#6b6f57"/>
   <path d="m-364.4-2745.9h8.5491v40h-8.5491v-40z" fill="#6b6f57"/>
   <path d="m-364.4-2695.9h8.5491v40h-8.5491v-40z" fill="#6b6f57"/>
   <path d="m-364.4-2645.9h8.5491v40h-8.5491v-40z" fill="#6b6f57"/>
   <path d="m-351.4-2945.9h8.5491v40h-8.5491v-40z" fill="#6b6f57"/>
   <path d="m-351.4-2895.9h8.5491v40h-8.5491v-40z" fill="#6b6f57"/>
   <path d="m-351.4-2845.9h8.5491v40h-8.5491v-40z" fill="#6b6f57"/>
   <path d="m-351.4-2795.9h8.5491v40h-8.5491v-40z" fill="#6b6f57"/>
   <path d="m-351.4-2745.9h8.5491v40h-8.5491v-40z" fill="#6b6f57"/>
   <path d="m-351.4-2695.9h8.5491v40h-8.5491v-40z" fill="#6b6f57"/>
   <path d="m-351.4-2645.9h8.5491v40h-8.5491v-40z" fill="#6b6f57"/>
  </g>
  <rect x="-1892.4" y="-3695.9" width="33.342" height="298" fill="url(#w)"/>
  <path d="m-1887.1-3635.9h8.5491v40h-8.5491v-40z" fill="#6b6f57"/>
  <path d="m-1887.1-3585.9h8.5491v40h-8.5491v-40z" fill="#6b6f57"/>
  <path d="m-1887.1-3535.9h8.5491v40h-8.5491v-40z" fill="#6b6f57"/>
  <path d="m-1887.1-3485.9h8.5491v40h-8.5491v-40z" fill="#6b6f57"/>
  <path d="m-1874.1-3635.9h8.5491v40h-8.5491v-40z" fill="#6b6f57"/>
  <path d="m-1874.1-3585.9h8.5491v40h-8.5491v-40z" fill="#6b6f57"/>
  <path d="m-1874.1-3535.9h8.5491v40h-8.5491v-40z" fill="#6b6f57"/>
  <path d="m-1874.1-3485.9h8.5491v40h-8.5491v-40z" fill="#6b6f57"/>
  <rect x="-1909.5" y="-3455.9" width="64.973" height="636" fill="url(#w)"/>
  <path d="m-1900.1-3425.9h8.5491v40h-8.5491v-40z" fill="#6b6f57"/>
  <path d="m-1900.1-3375.9h8.5491v40.002h-8.5491v-40.002z" fill="#6b6f57"/>
  <path d="m-1900.1-3325.9h8.5491v40h-8.5491v-40z" fill="#6b6f57"/>
  <path d="m-1900.1-3275.9h8.5491v40h-8.5491v-40z" fill="#6b6f57"/>
  <path d="m-1900.1-3225.9h8.5491v40h-8.5491v-40z" fill="#6b6f57"/>
  <path d="m-1900.1-3175.9h8.5491v40h-8.5491v-40z" fill="#6b6f57"/>
  <path d="m-1900.1-3125.9h8.5491v40h-8.5491v-40z" fill="#6b6f57"/>
  <path d="m-1900.1-3075.9h8.5491v40h-8.5491v-40z" fill="#6b6f57"/>
  <path d="m-1900.1-3025.9h8.5491v40h-8.5491v-40z" fill="#6b6f57"/>
  <path d="m-1900.1-2975.9h8.5491v40h-8.5491v-40z" fill="#6b6f57"/>
  <path d="m-1887.1-3425.9h8.5491v40h-8.5491v-40z" fill="#6b6f57"/>
  <path d="m-1887.1-3375.9h8.5491v40.002h-8.5491v-40.002z" fill="#6b6f57"/>
  <path d="m-1887.1-3325.9h8.5491v40h-8.5491v-40z" fill="#6b6f57"/>
  <path d="m-1887.1-3275.9h8.5491v40h-8.5491v-40z" fill="#6b6f57"/>
  <path d="m-1887.1-3225.9h8.5491v40h-8.5491v-40z" fill="#6b6f57"/>
  <path d="m-1887.1-3175.9h8.5491v40h-8.5491v-40z" fill="#6b6f57"/>
  <path d="m-1887.1-3125.9h8.5491v40h-8.5491v-40z" fill="#6b6f57"/>
  <path d="m-1887.1-3075.9h8.5491v40h-8.5491v-40z" fill="#6b6f57"/>
  <path d="m-1887.1-3025.9h8.5491v40h-8.5491v-40z" fill="#6b6f57"/>
  <path d="m-1887.1-2975.9h8.5491v40h-8.5491v-40z" fill="#6b6f57"/>
  <path d="m-1874.1-3425.9h8.5491v40h-8.5491v-40z" fill="#6b6f57"/>
  <path d="m-1874.1-3375.9h8.5491v40.002h-8.5491v-40.002z" fill="#6b6f57"/>
  <path d="m-1874.1-3325.9h8.5491v40h-8.5491v-40z" fill="#6b6f57"/>
  <path d="m-1874.1-3275.9h8.5491v40h-8.5491v-40z" fill="#6b6f57"/>
  <path d="m-1874.1-3225.9h8.5491v40h-8.5491v-40z" fill="#6b6f57"/>
  <path d="m-1874.1-3175.9h8.5491v40h-8.5491v-40z" fill="#6b6f57"/>
  <path d="m-1874.1-3125.9h8.5491v40h-8.5491v-40z" fill="#6b6f57"/>
  <path d="m-1874.1-3075.9h8.5491v40h-8.5491v-40z" fill="#6b6f57"/>
  <path d="m-1874.1-3025.9h8.5491v40h-8.5491v-40z" fill="#6b6f57"/>
  <path d="m-1874.1-2975.9h8.5491v40h-8.5491v-40z" fill="#6b6f57"/>
  <path d="m-1861.1-3425.9h8.5491v40h-8.5491v-40z" fill="#6b6f57"/>
  <path d="m-1861.1-3375.9h8.5491v40.002h-8.5491v-40.002z" fill="#6b6f57"/>
  <path d="m-1861.1-3325.9h8.5491v40h-8.5491v-40z" fill="#6b6f57"/>
  <path d="m-1861.1-3275.9h8.5491v40h-8.5491v-40z" fill="#6b6f57"/>
  <path d="m-1861.1-3225.9h8.5491v40h-8.5491v-40z" fill="#6b6f57"/>
  <path d="m-1861.1-3175.9h8.5491v40h-8.5491v-40z" fill="#6b6f57"/>
  <path d="m-1861.1-3125.9h8.5491v40h-8.5491v-40z" fill="#6b6f57"/>
  <path d="m-1861.1-3075.9h8.5491v40h-8.5491v-40z" fill="#6b6f57"/>
  <path d="m-1861.1-3025.9h8.5491v40h-8.5491v-40z" fill="#6b6f57"/>
  <path d="m-1861.1-2975.9h8.5491v40h-8.5491v-40z" fill="#6b6f57"/>
  <rect x="-1921.5" y="-3237.9" width="90.621" height="750" fill="#bbc0b1"/>
  <path d="m-1912.1-3193.9h8.5491v40h-8.5491v-40z" fill="#6b6f57"/>
  <path d="m-1912.1-3193.9h8.5491v40h-8.5491v-40z" fill="#6b6f57"/>
  <path d="m-1912.1-3143.9h8.5491v40h-8.5491v-40z" fill="#6b6f57"/>
  <path d="m-1912.1-3093.9h8.5491v40h-8.5491v-40z" fill="#6b6f57"/>
  <path d="m-1912.1-3043.9h8.5491v40h-8.5491v-40z" fill="#6b6f57"/>
  <path d="m-1912.1-2993.9h8.5491v40h-8.5491v-40z" fill="#6b6f57"/>
  <path d="m-1912.1-2943.9h8.5491v40h-8.5491v-40z" fill="#6b6f57"/>
  <path d="m-1912.1-2893.9h8.5491v40h-8.5491v-40z" fill="#6b6f57"/>
  <path d="m-1912.1-2843.9h8.5491v40h-8.5491v-40z" fill="#6b6f57"/>
  <path d="m-1912.1-2793.9h8.5491v40h-8.5491v-40z" fill="#6b6f57"/>
  <path d="m-1912.1-2743.9h8.5491v40h-8.5491v-40z" fill="#6b6f57"/>
  <path d="m-1912.1-2693.9h8.5491v40h-8.5491v-40z" fill="#6b6f57"/>
  <path d="m-1912.1-2643.9h8.5491v40h-8.5491v-40z" fill="#6b6f57"/>
  <path d="m-1899.1-3193.9h8.5491v40h-8.5491v-40z" fill="#6b6f57"/>
  <path d="m-1899.1-3143.9h8.5491v40h-8.5491v-40z" fill="#6b6f57"/>
  <path d="m-1899.1-3093.9h8.5491v40h-8.5491v-40z" fill="#6b6f57"/>
  <path d="m-1899.1-3043.9h8.5491v40h-8.5491v-40z" fill="#6b6f57"/>
  <path d="m-1899.1-2993.9h8.5491v40h-8.5491v-40z" fill="#6b6f57"/>
  <path d="m-1899.1-2943.9h8.5491v40h-8.5491v-40z" fill="#6b6f57"/>
  <path d="m-1899.1-2893.9h8.5491v40h-8.5491v-40z" fill="#6b6f57"/>
  <path d="m-1899.1-2843.9h8.5491v40h-8.5491v-40z" fill="#6b6f57"/>
  <path d="m-1899.1-2793.9h8.5491v40h-8.5491v-40z" fill="#6b6f57"/>
  <path d="m-1899.1-2743.9h8.5491v40h-8.5491v-40z" fill="#6b6f57"/>
  <path d="m-1899.1-2693.9h8.5491v40h-8.5491v-40z" fill="#6b6f57"/>
  <path d="m-1899.1-2643.9h8.5491v40h-8.5491v-40z" fill="#6b6f57"/>
  <path d="m-1886.1-3193.9h8.5491v40h-8.5491v-40z" fill="#6b6f57"/>
  <path d="m-1886.1-3143.9h8.5491v40h-8.5491v-40z" fill="#6b6f57"/>
  <path d="m-1886.1-3093.9h8.5491v40h-8.5491v-40z" fill="#6b6f57"/>
  <path d="m-1886.1-3043.9h8.5491v40h-8.5491v-40z" fill="#6b6f57"/>
  <path d="m-1886.1-2993.9h8.5491v40h-8.5491v-40z" fill="#6b6f57"/>
  <path d="m-1886.1-2943.9h8.5491v40h-8.5491v-40z" fill="#6b6f57"/>
  <path d="m-1886.1-2893.9h8.5491v40h-8.5491v-40z" fill="#6b6f57"/>
  <path d="m-1886.1-2843.9h8.5491v40h-8.5491v-40z" fill="#6b6f57"/>
  <path d="m-1886.1-2793.9h8.5491v40h-8.5491v-40z" fill="#6b6f57"/>
  <path d="m-1886.1-2743.9h8.5491v40h-8.5491v-40z" fill="#6b6f57"/>
  <path d="m-1886.1-2693.9h8.5491v40h-8.5491v-40z" fill="#6b6f57"/>
  <path d="m-1886.1-2643.9h8.5491v40h-8.5491v-40z" fill="#6b6f57"/>
  <path d="m-1873.1-3193.9h8.5491v40h-8.5491v-40z" fill="#6b6f57"/>
  <path d="m-1873.1-3143.9h8.5491v40h-8.5491v-40z" fill="#6b6f57"/>
  <path d="m-1873.1-3093.9h8.5491v40h-8.5491v-40z" fill="#6b6f57"/>
  <path d="m-1873.1-3043.9h8.5491v40h-8.5491v-40z" fill="#6b6f57"/>
  <path d="m-1873.1-2993.9h8.5491v40h-8.5491v-40z" fill="#6b6f57"/>
  <path d="m-1873.1-2943.9h8.5491v40h-8.5491v-40z" fill="#6b6f57"/>
  <path d="m-1873.1-2893.9h8.5491v40h-8.5491v-40z" fill="#6b6f57"/>
  <path d="m-1873.1-2843.9h8.5491v40h-8.5491v-40z" fill="#6b6f57"/>
  <path d="m-1873.1-2793.9h8.5491v40h-8.5491v-40z" fill="#6b6f57"/>
  <path d="m-1873.1-2743.9h8.5491v40h-8.5491v-40z" fill="#6b6f57"/>
  <path d="m-1873.1-2693.9h8.5491v40h-8.5491v-40z" fill="#6b6f57"/>
  <path d="m-1873.1-2643.9h8.5491v40h-8.5491v-40z" fill="#6b6f57"/>
  <path d="m-1860.1-3193.9h8.5491v40h-8.5491v-40z" fill="#6b6f57"/>
  <path d="m-1860.1-3143.9h8.5491v40h-8.5491v-40z" fill="#6b6f57"/>
  <path d="m-1860.1-3093.9h8.5491v40h-8.5491v-40z" fill="#6b6f57"/>
  <path d="m-1860.1-3043.9h8.5491v40h-8.5491v-40z" fill="#6b6f57"/>
  <path d="m-1860.1-2993.9h8.5491v40h-8.5491v-40z" fill="#6b6f57"/>
  <path d="m-1860.1-2943.9h8.5491v40h-8.5491v-40z" fill="#6b6f57"/>
  <path d="m-1860.1-2893.9h8.5491v40h-8.5491v-40z" fill="#6b6f57"/>
  <path d="m-1860.1-2843.9h8.5491v40h-8.5491v-40z" fill="#6b6f57"/>
  <path d="m-1860.1-2793.9h8.5491v40h-8.5491v-40z" fill="#6b6f57"/>
  <path d="m-1860.1-2743.9h8.5491v40h-8.5491v-40z" fill="#6b6f57"/>
  <path d="m-1860.1-2693.9h8.5491v40h-8.5491v-40z" fill="#6b6f57"/>
  <path d="m-1860.1-2643.9h8.5491v40h-8.5491v-40z" fill="#6b6f57"/>
  <path d="m-1847.1-3193.9h8.5491v40h-8.5491v-40z" fill="#6b6f57"/>
  <path d="m-1847.1-3143.9h8.5491v40h-8.5491v-40z" fill="#6b6f57"/>
  <path d="m-1847.1-3093.9h8.5491v40h-8.5491v-40z" fill="#6b6f57"/>
  <path d="m-1847.1-3043.9h8.5491v40h-8.5491v-40z" fill="#6b6f57"/>
  <path d="m-1847.1-2993.9h8.5491v40h-8.5491v-40z" fill="#6b6f57"/>
  <path d="m-1847.1-2943.9h8.5491v40h-8.5491v-40z" fill="#6b6f57"/>
  <path d="m-1847.1-2893.9h8.5491v40h-8.5491v-40z" fill="#6b6f57"/>
  <path d="m-1847.1-2843.9h8.5491v40h-8.5491v-40z" fill="#6b6f57"/>
  <path d="m-1847.1-2793.9h8.5491v40h-8.5491v-40z" fill="#6b6f57"/>
  <path d="m-1847.1-2743.9h8.5491v40h-8.5491v-40z" fill="#6b6f57"/>
  <path d="m-1847.1-2693.9h8.5491v40h-8.5491v-40z" fill="#6b6f57"/>
  <path d="m-1847.1-2643.9h8.5491v40h-8.5491v-40z" fill="#6b6f57"/>
  <rect x="-1986.4" y="-2961.9" width="64.973" height="472" fill="url(#w)"/>
  <path d="m-1977-2945.9h8.5491v40h-8.5491v-40z" fill="#6b6f57"/>
  <path d="m-1977-2895.9h8.5491v40h-8.5491v-40z" fill="#6b6f57"/>
  <path d="m-1977-2845.9h8.5491v40h-8.5491v-40z" fill="#6b6f57"/>
  <path d="m-1977-2795.9h8.5491v40h-8.5491v-40z" fill="#6b6f57"/>
  <path d="m-1977-2745.9h8.5491v40h-8.5491v-40z" fill="#6b6f57"/>
  <path d="m-1977-2695.9h8.5491v40h-8.5491v-40z" fill="#6b6f57"/>
  <path d="m-1977-2645.9h8.5491v40h-8.5491v-40z" fill="#6b6f57"/>
  <g fill="#6b6f57">
   <path d="m-1951-3063.9h8.5491v40h-8.5491v-40z"/>
   <path d="m-1951-3013.9h8.5491v40h-8.5491v-40z"/>
   <path d="m-1938-3063.9h8.5491v40h-8.5491v-40z"/>
   <path d="m-1938-3013.9h8.5491v40h-8.5491v-40z"/>
  </g>
  <path d="m-1964-2945.9h8.5491v40h-8.5491v-40z" fill="#6b6f57"/>
  <path d="m-1964-2895.9h8.5491v40h-8.5491v-40z" fill="#6b6f57"/>
  <path d="m-1964-2845.9h8.5491v40h-8.5491v-40z" fill="#6b6f57"/>
  <path d="m-1964-2795.9h8.5491v40h-8.5491v-40z" fill="#6b6f57"/>
  <path d="m-1964-2745.9h8.5491v40h-8.5491v-40z" fill="#6b6f57"/>
  <path d="m-1964-2695.9h8.5491v40h-8.5491v-40z" fill="#6b6f57"/>
  <path d="m-1964-2645.9h8.5491v40h-8.5491v-40z" fill="#6b6f57"/>
  <path d="m-1951-2945.9h8.5491v40h-8.5491v-40z" fill="#6b6f57"/>
  <path d="m-1951-2895.9h8.5491v40h-8.5491v-40z" fill="#6b6f57"/>
  <path d="m-1951-2845.9h8.5491v40h-8.5491v-40z" fill="#6b6f57"/>
  <path d="m-1951-2795.9h8.5491v40h-8.5491v-40z" fill="#6b6f57"/>
  <path d="m-1951-2745.9h8.5491v40h-8.5491v-40z" fill="#6b6f57"/>
  <path d="m-1951-2695.9h8.5491v40h-8.5491v-40z" fill="#6b6f57"/>
  <path d="m-1951-2645.9h8.5491v40h-8.5491v-40z" fill="#6b6f57"/>
  <path d="m-1938-2945.9h8.5491v40h-8.5491v-40z" fill="#6b6f57"/>
  <path d="m-1938-2895.9h8.5491v40h-8.5491v-40z" fill="#6b6f57"/>
  <path d="m-1938-2845.9h8.5491v40h-8.5491v-40z" fill="#6b6f57"/>
  <path d="m-1938-2795.9h8.5491v40h-8.5491v-40z" fill="#6b6f57"/>
  <path d="m-1938-2745.9h8.5491v40h-8.5491v-40z" fill="#6b6f57"/>
  <path d="m-1938-2695.9h8.5491v40h-8.5491v-40z" fill="#6b6f57"/>
  <path d="m-1938-2645.9h8.5491v40h-8.5491v-40z" fill="#6b6f57"/>
 </g>
 <g transform="matrix(1.002 0 0 .8208 3028 1401.7)">
  <g transform="matrix(1.2295 0 0 1.2295 -380.83 -473.02)">
   <rect x="-1274.2" y="-885.17" width="65.66" height="30.305" fill="url(#ae)"/>
   <rect x="-1285.9" y="-857.36" width="88.893" height="345.47" fill="#8a9da5"/>
   <g fill="#555753">
    <rect x="-1226.3" y="-805.51" width="4" height="292.94"/>
    <rect x="-1214.9" y="-805.51" width="4" height="292.94"/>
    <rect x="-1237.7" y="-805.51" width="4" height="292.94"/>
    <rect x="-1249.1" y="-805.51" width="4" height="292.94"/>
    <rect x="-1260.5" y="-805.51" width="4" height="292.94"/>
    <rect x="-1271.9" y="-805.51" width="4" height="292.94"/>
   </g>
   <rect x="-1248.1" y="-907.36" width="2.8284" height="23.335"/>
   <rect x="-1235.6" y="-947.66" width="2.8284" height="62.933"/>
  </g>
  <rect x="-1831.2" y="-1473.7" width="109.16" height="30.305" fill="url(#ae)"/>
  <rect x="-1842.7" y="-1448.8" width="132.89" height="345.47" fill="url(#ag)"/>
  <rect x="-1834.7" y="-1434.3" width="113.14" height="9.1924" fill="#555753"/>
  <rect x="-1834.7" y="-1413.2" width="113.14" height="9.1924" fill="#555753"/>
  <rect x="-1834.7" y="-1286.5" width="113.14" height="9.1924" fill="#555753"/>
  <rect x="-1834.7" y="-1265.4" width="113.14" height="9.1924" fill="#555753"/>
  <rect x="-1834.7" y="-1244.2" width="113.14" height="9.1924" fill="#555753"/>
  <rect x="-1834.7" y="-1223.1" width="113.14" height="9.1924" fill="#555753"/>
  <rect x="-1834.7" y="-1202" width="113.14" height="9.1924" fill="#555753"/>
  <rect x="-1834.7" y="-1180.9" width="113.14" height="9.1924" fill="#555753"/>
  <rect x="-1834.7" y="-1159.8" width="113.14" height="9.1924" fill="#555753"/>
  <rect x="-1834.7" y="-1138.7" width="113.14" height="9.1924" fill="#555753"/>
  <rect x="-1833.3" y="-1117.5" width="113.14" height="9.1924" fill="#555753"/>
  <rect x="-1834.7" y="-1392.1" width="113.14" height="9.1924" fill="#555753"/>
  <rect x="-1834.7" y="-1371" width="113.14" height="9.1924" fill="#555753"/>
  <rect x="-1834.7" y="-1349.8" width="113.14" height="9.1924" fill="#555753"/>
  <rect x="-1834.7" y="-1328.7" width="113.14" height="9.1924" fill="#555753"/>
  <rect x="-1834.7" y="-1307.6" width="113.14" height="9.1924" fill="#555753"/>
 </g>
 <g transform="matrix(.77876 0 0 .63792 2104.5 1188.5)">
  <rect x="-2237.7" y="-1538.8" width="104.31" height="39.305" fill="url(#ah)"/>
  <rect x="-2255.6" y="-1465.7" width="20.577" height="38.11" fill="#eeeeec" stroke="#3465a4" stroke-width="1.559"/>
  <path d="m-2242.3-1463.4h5.0015v10.169l-5.0015-10.169z" fill="#fff"/>
  <path d="m-2236.3-1433.8v5.0017h-17.594l17.594-5.0017z" fill="#d3d7cf"/>
  <rect x="-2255.6" y="-1465.7" width="20.577" height="38.11" fill="#eeeeec" stroke="#3465a4"/>
  <path d="m-2242.3-1463.4h5.0015v10.169l-5.0015-10.169z" fill="#fff"/>
  <path d="m-2236.3-1433.8v5.0017h-17.594l17.594-5.0017z" fill="#d3d7cf"/>
  <rect x="-2255.6" y="-1427.6" width="20.577" height="38.11" fill="#eeeeec" stroke="#3465a4"/>
  <path d="m-2242.3-1425.3h5.0015v10.169l-5.0015-10.169z" fill="#fff"/>
  <path d="m-2236.3-1395.7v5.0017h-17.594l17.594-5.0017z" fill="#d3d7cf"/>
  <rect x="-2255.6" y="-1389.5" width="20.577" height="38.11" fill="#eeeeec" stroke="#3465a4"/>
  <path d="m-2242.3-1387.2h5.0015v10.169l-5.0015-10.169z" fill="#fff"/>
  <path d="m-2236.3-1357.6v5.0017h-17.594l17.594-5.0017z" fill="#d3d7cf"/>
  <rect x="-2255.6" y="-1351.4" width="20.577" height="38.11" fill="#eeeeec" stroke="#3465a4"/>
  <path d="m-2242.3-1349.1h5.0015v10.169l-5.0015-10.169z" fill="#fff"/>
  <path d="m-2236.3-1319.5v5.0017h-17.594l17.594-5.0017z" fill="#d3d7cf"/>
  <rect x="-2255.6" y="-1313.3" width="20.577" height="38.11" fill="#eeeeec" stroke="#3465a4"/>
  <path d="m-2242.3-1311h5.0015v10.169l-5.0015-10.169z" fill="#fff"/>
  <path d="m-2236.3-1281.4v5.0017h-17.594l17.594-5.0017z" fill="#d3d7cf"/>
  <rect x="-2255.6" y="-1275.1" width="20.577" height="38.11" fill="#eeeeec" stroke="#3465a4"/>
  <path d="m-2242.3-1272.9h5.0015v10.169l-5.0015-10.169z" fill="#fff"/>
  <path d="m-2236.3-1243.3v5.0017h-17.594l17.594-5.0017z" fill="#d3d7cf"/>
  <rect x="-2255.6" y="-1237" width="20.577" height="38.11" fill="#eeeeec" stroke="#3465a4"/>
  <path d="m-2242.3-1234.8h5.0015v10.169l-5.0015-10.169z" fill="#fff"/>
  <path d="m-2236.3-1205.2v5.0018h-17.594l17.594-5.0018z" fill="#d3d7cf"/>
  <rect x="-2255.6" y="-1198.9" width="20.577" height="38.11" fill="#eeeeec" stroke="#3465a4"/>
  <path d="m-2242.3-1196.7h5.0015v10.169l-5.0015-10.169z" fill="#fff"/>
  <path d="m-2236.3-1167v5.0017h-17.594l17.594-5.0017z" fill="#d3d7cf"/>
  <rect x="-2255.6" y="-1160.8" width="20.577" height="38.11" fill="#eeeeec" stroke="#3465a4"/>
  <path d="m-2242.3-1158.6h5.0015v10.169l-5.0015-10.169z" fill="#fff"/>
  <path d="m-2236.3-1128.9v5.0016h-17.594l17.594-5.0016z" fill="#d3d7cf"/>
  <rect x="-2255.6" y="-1122.7" width="20.577" height="38.11" fill="#eeeeec" stroke="#3465a4"/>
  <path d="m-2242.3-1120.5h5.0015v10.169l-5.0015-10.169z" fill="#fff"/>
  <path d="m-2236.3-1090.8v5.0017h-17.594l17.594-5.0017z" fill="#d3d7cf"/>
  <rect x="-2235" y="-1465.7" width="20.577" height="38.11" fill="#eeeeec" stroke="#3465a4"/>
  <path d="m-2221.7-1463.4h5.0017v10.169l-5.0017-10.169z" fill="#fff"/>
  <path d="m-2215.7-1433.8v5.0017h-17.593l17.593-5.0017z" fill="#d3d7cf"/>
  <rect x="-2235" y="-1427.6" width="20.577" height="38.11" fill="#eeeeec" stroke="#3465a4"/>
  <path d="m-2221.7-1425.3h5.0017v10.169l-5.0017-10.169z" fill="#fff"/>
  <path d="m-2215.7-1395.7v5.0017h-17.593l17.593-5.0017z" fill="#d3d7cf"/>
  <rect x="-2235" y="-1389.5" width="20.577" height="38.11" fill="#eeeeec" stroke="#3465a4"/>
  <path d="m-2221.7-1387.2h5.0017v10.169l-5.0017-10.169z" fill="#fff"/>
  <path d="m-2215.7-1357.6v5.0017h-17.593l17.593-5.0017z" fill="#d3d7cf"/>
  <rect x="-2235" y="-1351.4" width="20.577" height="38.11" fill="#eeeeec" stroke="#3465a4"/>
  <path d="m-2221.7-1349.1h5.0017v10.169l-5.0017-10.169z" fill="#fff"/>
  <path d="m-2215.7-1319.5v5.0017h-17.593l17.593-5.0017z" fill="#d3d7cf"/>
  <rect x="-2235" y="-1313.3" width="20.577" height="38.11" fill="#eeeeec" stroke="#3465a4"/>
  <path d="m-2221.7-1311h5.0017v10.169l-5.0017-10.169z" fill="#fff"/>
  <path d="m-2215.7-1281.4v5.0017h-17.593l17.593-5.0017z" fill="#d3d7cf"/>
  <rect x="-2235" y="-1275.1" width="20.577" height="38.11" fill="#eeeeec" stroke="#3465a4"/>
  <path d="m-2221.7-1272.9h5.0017v10.169l-5.0017-10.169z" fill="#fff"/>
  <path d="m-2215.7-1243.3v5.0017h-17.593l17.593-5.0017z" fill="#d3d7cf"/>
  <rect x="-2235" y="-1237" width="20.577" height="38.11" fill="#eeeeec" stroke="#3465a4"/>
  <path d="m-2221.7-1234.8h5.0017v10.169l-5.0017-10.169z" fill="#fff"/>
  <path d="m-2215.7-1205.2v5.0018h-17.593l17.593-5.0018z" fill="#d3d7cf"/>
  <rect x="-2235" y="-1198.9" width="20.577" height="38.11" fill="#eeeeec" stroke="#3465a4"/>
  <path d="m-2221.7-1196.7h5.0017v10.169l-5.0017-10.169z" fill="#fff"/>
  <path d="m-2215.7-1167v5.0017h-17.593l17.593-5.0017z" fill="#d3d7cf"/>
  <rect x="-2235" y="-1160.8" width="20.577" height="38.11" fill="#eeeeec" stroke="#3465a4"/>
  <path d="m-2221.7-1158.6h5.0017v10.169l-5.0017-10.169z" fill="#fff"/>
  <path d="m-2215.7-1128.9v5.0016h-17.593l17.593-5.0016z" fill="#d3d7cf"/>
  <rect x="-2235" y="-1122.7" width="20.577" height="38.11" fill="#eeeeec" stroke="#3465a4"/>
  <path d="m-2221.7-1120.5h5.0017v10.169l-5.0017-10.169z" fill="#fff"/>
  <path d="m-2215.7-1090.8v5.0017h-17.593l17.593-5.0017z" fill="#d3d7cf"/>
  <rect x="-2214.5" y="-1465.7" width="20.577" height="38.11" fill="#eeeeec" stroke="#3465a4"/>
  <path d="m-2201.1-1463.4h5.002v10.169l-5.002-10.169z" fill="#fff"/>
  <path d="m-2195.1-1433.8v5.0017h-17.594l17.594-5.0017z" fill="#d3d7cf"/>
  <rect x="-2214.5" y="-1427.6" width="20.577" height="38.11" fill="#eeeeec" stroke="#3465a4"/>
  <path d="m-2201.1-1425.3h5.002v10.169l-5.002-10.169z" fill="#fff"/>
  <path d="m-2195.1-1395.7v5.0017h-17.594l17.594-5.0017z" fill="#d3d7cf"/>
  <rect x="-2214.5" y="-1389.5" width="20.577" height="38.11" fill="#eeeeec" stroke="#3465a4"/>
  <path d="m-2201.1-1387.2h5.002v10.169l-5.002-10.169z" fill="#fff"/>
  <path d="m-2195.1-1357.6v5.0017h-17.594l17.594-5.0017z" fill="#d3d7cf"/>
  <rect x="-2214.5" y="-1351.4" width="20.577" height="38.11" fill="#eeeeec" stroke="#3465a4"/>
  <path d="m-2201.1-1349.1h5.002v10.169l-5.002-10.169z" fill="#fff"/>
  <path d="m-2195.1-1319.5v5.0017h-17.594l17.594-5.0017z" fill="#d3d7cf"/>
  <rect x="-2214.5" y="-1313.3" width="20.577" height="38.11" fill="#eeeeec" stroke="#3465a4"/>
  <path d="m-2201.1-1311h5.002v10.169l-5.002-10.169z" fill="#fff"/>
  <path d="m-2195.1-1281.4v5.0017h-17.594l17.594-5.0017z" fill="#d3d7cf"/>
  <rect x="-2214.5" y="-1275.1" width="20.577" height="38.11" fill="#eeeeec" stroke="#3465a4"/>
  <path d="m-2201.1-1272.9h5.002v10.169l-5.002-10.169z" fill="#fff"/>
  <path d="m-2195.1-1243.3v5.0017h-17.594l17.594-5.0017z" fill="#d3d7cf"/>
  <rect x="-2214.5" y="-1237" width="20.577" height="38.11" fill="#eeeeec" stroke="#3465a4"/>
  <path d="m-2201.1-1234.8h5.002v10.169l-5.002-10.169z" fill="#fff"/>
  <path d="m-2195.1-1205.2v5.0018h-17.594l17.594-5.0018z" fill="#d3d7cf"/>
  <rect x="-2214.5" y="-1198.9" width="20.577" height="38.11" fill="#eeeeec" stroke="#3465a4"/>
  <path d="m-2201.1-1196.7h5.002v10.169l-5.002-10.169z" fill="#fff"/>
  <path d="m-2195.1-1167v5.0017h-17.594l17.594-5.0017z" fill="#d3d7cf"/>
  <rect x="-2214.5" y="-1160.8" width="20.577" height="38.11" fill="#eeeeec" stroke="#3465a4"/>
  <path d="m-2201.1-1158.6h5.002v10.169l-5.002-10.169z" fill="#fff"/>
  <path d="m-2195.1-1128.9v5.0016h-17.594l17.594-5.0016z" fill="#d3d7cf"/>
  <rect x="-2214.5" y="-1122.7" width="20.577" height="38.11" fill="#eeeeec" stroke="#3465a4"/>
  <path d="m-2201.1-1120.5h5.002v10.169l-5.002-10.169z" fill="#fff"/>
  <path d="m-2195.1-1090.8v5.0017h-17.594l17.594-5.0017z" fill="#d3d7cf"/>
  <rect x="-2193.9" y="-1465.7" width="20.577" height="38.11" fill="#eeeeec" stroke="#3465a4"/>
  <path d="m-2180.5-1463.4h5.002v10.169l-5.002-10.169z" fill="#fff"/>
  <path d="m-2174.5-1433.8v5.0017h-17.594l17.594-5.0017z" fill="#d3d7cf"/>
  <rect x="-2193.9" y="-1427.6" width="20.577" height="38.11" fill="#eeeeec" stroke="#3465a4"/>
  <path d="m-2180.5-1425.3h5.002v10.169l-5.002-10.169z" fill="#fff"/>
  <path d="m-2174.5-1395.7v5.0017h-17.594l17.594-5.0017z" fill="#d3d7cf"/>
  <rect x="-2193.9" y="-1389.5" width="20.577" height="38.11" fill="#eeeeec" stroke="#3465a4"/>
  <path d="m-2180.5-1387.2h5.002v10.169l-5.002-10.169z" fill="#fff"/>
  <path d="m-2174.5-1357.6v5.0017h-17.594l17.594-5.0017z" fill="#d3d7cf"/>
  <rect x="-2193.9" y="-1351.4" width="20.577" height="38.11" fill="#eeeeec" stroke="#3465a4"/>
  <path d="m-2180.5-1349.1h5.002v10.169l-5.002-10.169z" fill="#fff"/>
  <path d="m-2174.5-1319.5v5.0017h-17.594l17.594-5.0017z" fill="#d3d7cf"/>
  <rect x="-2193.9" y="-1313.3" width="20.577" height="38.11" fill="#eeeeec" stroke="#3465a4"/>
  <path d="m-2180.5-1311h5.002v10.169l-5.002-10.169z" fill="#fff"/>
  <path d="m-2174.5-1281.4v5.0017h-17.594l17.594-5.0017z" fill="#d3d7cf"/>
  <rect x="-2193.9" y="-1275.1" width="20.577" height="38.11" fill="#eeeeec" stroke="#3465a4"/>
  <path d="m-2180.5-1272.9h5.002v10.169l-5.002-10.169z" fill="#fff"/>
  <path d="m-2174.5-1243.3v5.0017h-17.594l17.594-5.0017z" fill="#d3d7cf"/>
  <rect x="-2193.9" y="-1237" width="20.577" height="38.11" fill="#eeeeec" stroke="#3465a4"/>
  <path d="m-2180.5-1234.8h5.002v10.169l-5.002-10.169z" fill="#fff"/>
  <path d="m-2174.5-1205.2v5.0018h-17.594l17.594-5.0018z" fill="#d3d7cf"/>
  <rect x="-2193.9" y="-1198.9" width="20.577" height="38.11" fill="#eeeeec" stroke="#3465a4"/>
  <path d="m-2180.5-1196.7h5.002v10.169l-5.002-10.169z" fill="#fff"/>
  <path d="m-2174.5-1167v5.0017h-17.594l17.594-5.0017z" fill="#d3d7cf"/>
  <rect x="-2193.9" y="-1160.8" width="20.577" height="38.11" fill="#eeeeec" stroke="#3465a4"/>
  <path d="m-2180.5-1158.6h5.002v10.169l-5.002-10.169z" fill="#fff"/>
  <path d="m-2174.5-1128.9v5.0016h-17.594l17.594-5.0016z" fill="#d3d7cf"/>
  <rect x="-2193.9" y="-1122.7" width="20.577" height="38.11" fill="#eeeeec" stroke="#3465a4"/>
  <path d="m-2180.5-1120.5h5.002v10.169l-5.002-10.169z" fill="#fff"/>
  <path d="m-2174.5-1090.8v5.0017h-17.594l17.594-5.0017z" fill="#d3d7cf"/>
  <rect x="-2173.3" y="-1465.7" width="20.577" height="38.11" fill="#eeeeec" stroke="#3465a4"/>
  <path d="m-2160-1463.4h5.0015v10.169l-5.0015-10.169z" fill="#fff"/>
  <path d="m-2154-1433.8v5.0017h-17.593l17.593-5.0017z" fill="#d3d7cf"/>
  <rect x="-2173.3" y="-1427.6" width="20.577" height="38.11" fill="#eeeeec" stroke="#3465a4"/>
  <path d="m-2160-1425.3h5.0015v10.169l-5.0015-10.169z" fill="#fff"/>
  <path d="m-2154-1395.7v5.0017h-17.593l17.593-5.0017z" fill="#d3d7cf"/>
  <rect x="-2173.3" y="-1389.5" width="20.577" height="38.11" fill="#eeeeec" stroke="#3465a4"/>
  <path d="m-2160-1387.2h5.0015v10.169l-5.0015-10.169z" fill="#fff"/>
  <path d="m-2154-1357.6v5.0017h-17.593l17.593-5.0017z" fill="#d3d7cf"/>
  <rect x="-2173.3" y="-1351.4" width="20.577" height="38.11" fill="#eeeeec" stroke="#3465a4"/>
  <path d="m-2160-1349.1h5.0015v10.169l-5.0015-10.169z" fill="#fff"/>
  <path d="m-2154-1319.5v5.0017h-17.593l17.593-5.0017z" fill="#d3d7cf"/>
  <rect x="-2173.3" y="-1313.3" width="20.577" height="38.11" fill="#eeeeec" stroke="#3465a4"/>
  <path d="m-2160-1311h5.0015v10.169l-5.0015-10.169z" fill="#fff"/>
  <path d="m-2154-1281.4v5.0017h-17.593l17.593-5.0017z" fill="#d3d7cf"/>
  <rect x="-2173.3" y="-1275.1" width="20.577" height="38.11" fill="#eeeeec" stroke="#3465a4"/>
  <path d="m-2160-1272.9h5.0015v10.169l-5.0015-10.169z" fill="#fff"/>
  <path d="m-2154-1243.3v5.0017h-17.593l17.593-5.0017z" fill="#d3d7cf"/>
  <rect x="-2173.3" y="-1237" width="20.577" height="38.11" fill="#eeeeec" stroke="#3465a4"/>
  <path d="m-2160-1234.8h5.0015v10.169l-5.0015-10.169z" fill="#fff"/>
  <path d="m-2154-1205.2v5.0018h-17.593l17.593-5.0018z" fill="#d3d7cf"/>
  <rect x="-2173.3" y="-1198.9" width="20.577" height="38.11" fill="#eeeeec" stroke="#3465a4"/>
  <path d="m-2160-1196.7h5.0015v10.169l-5.0015-10.169z" fill="#fff"/>
  <path d="m-2154-1167v5.0017h-17.593l17.593-5.0017z" fill="#d3d7cf"/>
  <rect x="-2173.3" y="-1160.8" width="20.577" height="38.11" fill="#eeeeec" stroke="#3465a4"/>
  <path d="m-2160-1158.6h5.0015v10.169l-5.0015-10.169z" fill="#fff"/>
  <path d="m-2154-1128.9v5.0016h-17.593l17.593-5.0016z" fill="#d3d7cf"/>
  <rect x="-2173.3" y="-1122.7" width="20.577" height="38.11" fill="#eeeeec" stroke="#3465a4"/>
  <path d="m-2160-1120.5h5.0015v10.169l-5.0015-10.169z" fill="#fff"/>
  <path d="m-2154-1090.8v5.0017h-17.593l17.593-5.0017z" fill="#d3d7cf"/>
  <rect x="-2152.7" y="-1465.7" width="20.577" height="38.11" fill="#eeeeec" stroke="#3465a4"/>
  <path d="m-2139.4-1463.4h5.0017v10.169l-5.0017-10.169z" fill="#fff"/>
  <path d="m-2133.4-1433.8v5.0017h-17.593l17.593-5.0017z" fill="#d3d7cf"/>
  <rect x="-2152.7" y="-1427.6" width="20.577" height="38.11" fill="#eeeeec" stroke="#3465a4"/>
  <path d="m-2139.4-1425.3h5.0017v10.169l-5.0017-10.169z" fill="#fff"/>
  <path d="m-2133.4-1395.7v5.0017h-17.593l17.593-5.0017z" fill="#d3d7cf"/>
  <rect x="-2152.7" y="-1389.5" width="20.577" height="38.11" fill="#eeeeec" stroke="#3465a4"/>
  <path d="m-2139.4-1387.2h5.0017v10.169l-5.0017-10.169z" fill="#fff"/>
  <path d="m-2133.4-1357.6v5.0017h-17.593l17.593-5.0017z" fill="#d3d7cf"/>
  <rect x="-2152.7" y="-1351.4" width="20.577" height="38.11" fill="#eeeeec" stroke="#3465a4"/>
  <path d="m-2139.4-1349.1h5.0017v10.169l-5.0017-10.169z" fill="#fff"/>
  <path d="m-2133.4-1319.5v5.0017h-17.593l17.593-5.0017z" fill="#d3d7cf"/>
  <rect x="-2152.7" y="-1313.3" width="20.577" height="38.11" fill="#eeeeec" stroke="#3465a4"/>
  <path d="m-2139.4-1311h5.0017v10.169l-5.0017-10.169z" fill="#fff"/>
  <path d="m-2133.4-1281.4v5.0017h-17.593l17.593-5.0017z" fill="#d3d7cf"/>
  <rect x="-2152.7" y="-1275.1" width="20.577" height="38.11" fill="#eeeeec" stroke="#3465a4"/>
  <path d="m-2139.4-1272.9h5.0017v10.169l-5.0017-10.169z" fill="#fff"/>
  <path d="m-2133.4-1243.3v5.0017h-17.593l17.593-5.0017z" fill="#d3d7cf"/>
  <rect x="-2152.7" y="-1237" width="20.577" height="38.11" fill="#eeeeec" stroke="#3465a4"/>
  <path d="m-2139.4-1234.8h5.0017v10.169l-5.0017-10.169z" fill="#fff"/>
  <path d="m-2133.4-1205.2v5.0018h-17.593l17.593-5.0018z" fill="#d3d7cf"/>
  <rect x="-2152.7" y="-1198.9" width="20.577" height="38.11" fill="#eeeeec" stroke="#3465a4"/>
  <path d="m-2139.4-1196.7h5.0017v10.169l-5.0017-10.169z" fill="#fff"/>
  <path d="m-2133.4-1167v5.0017h-17.593l17.593-5.0017z" fill="#d3d7cf"/>
  <rect x="-2152.7" y="-1160.8" width="20.577" height="38.11" fill="#eeeeec" stroke="#3465a4"/>
  <path d="m-2139.4-1158.6h5.0017v10.169l-5.0017-10.169z" fill="#fff"/>
  <path d="m-2133.4-1128.9v5.0016h-17.593l17.593-5.0016z" fill="#d3d7cf"/>
  <rect x="-2152.7" y="-1122.7" width="20.577" height="38.11" fill="#eeeeec" stroke="#3465a4"/>
  <path d="m-2139.4-1120.5h5.0017v10.169l-5.0017-10.169z" fill="#fff"/>
  <path d="m-2133.4-1090.8v5.0017h-17.593l17.593-5.0017z" fill="#d3d7cf"/>
  <rect x="-2132.1" y="-1465.7" width="20.577" height="38.11" fill="#eeeeec" stroke="#3465a4"/>
  <path d="m-2118.8-1463.4h5.002v10.169l-5.002-10.169z" fill="#fff"/>
  <path d="m-2112.8-1433.8v5.0017h-17.593l17.593-5.0017z" fill="#d3d7cf"/>
  <rect x="-2132.1" y="-1427.6" width="20.577" height="38.11" fill="#eeeeec" stroke="#3465a4"/>
  <path d="m-2118.8-1425.3h5.002v10.169l-5.002-10.169z" fill="#fff"/>
  <path d="m-2112.8-1395.7v5.0017h-17.593l17.593-5.0017z" fill="#d3d7cf"/>
  <rect x="-2132.1" y="-1389.5" width="20.577" height="38.11" fill="#eeeeec" stroke="#3465a4"/>
  <path d="m-2118.8-1387.2h5.002v10.169l-5.002-10.169z" fill="#fff"/>
  <path d="m-2112.8-1357.6v5.0017h-17.593l17.593-5.0017z" fill="#d3d7cf"/>
  <rect x="-2132.1" y="-1351.4" width="20.577" height="38.11" fill="#eeeeec" stroke="#3465a4"/>
  <path d="m-2118.8-1349.1h5.002v10.169l-5.002-10.169z" fill="#fff"/>
  <path d="m-2112.8-1319.5v5.0017h-17.593l17.593-5.0017z" fill="#d3d7cf"/>
  <rect x="-2132.1" y="-1313.3" width="20.577" height="38.11" fill="#eeeeec" stroke="#3465a4"/>
  <path d="m-2118.8-1311h5.002v10.169l-5.002-10.169z" fill="#fff"/>
  <path d="m-2112.8-1281.4v5.0017h-17.593l17.593-5.0017z" fill="#d3d7cf"/>
  <rect x="-2132.1" y="-1275.1" width="20.577" height="38.11" fill="#eeeeec" stroke="#3465a4"/>
  <path d="m-2118.8-1272.9h5.002v10.169l-5.002-10.169z" fill="#fff"/>
  <path d="m-2112.8-1243.3v5.0017h-17.593l17.593-5.0017z" fill="#d3d7cf"/>
  <rect x="-2132.1" y="-1237" width="20.577" height="38.11" fill="#eeeeec" stroke="#3465a4"/>
  <path d="m-2118.8-1234.8h5.002v10.169l-5.002-10.169z" fill="#fff"/>
  <path d="m-2112.8-1205.2v5.0018h-17.593l17.593-5.0018z" fill="#d3d7cf"/>
  <rect x="-2132.1" y="-1198.9" width="20.577" height="38.11" fill="#eeeeec" stroke="#3465a4"/>
  <path d="m-2118.8-1196.7h5.002v10.169l-5.002-10.169z" fill="#fff"/>
  <path d="m-2112.8-1167v5.0017h-17.593l17.593-5.0017z" fill="#d3d7cf"/>
  <rect x="-2132.1" y="-1160.8" width="20.577" height="38.11" fill="#eeeeec" stroke="#3465a4"/>
  <path d="m-2118.8-1158.6h5.002v10.169l-5.002-10.169z" fill="#fff"/>
  <path d="m-2112.8-1128.9v5.0016h-17.593l17.593-5.0016z" fill="#d3d7cf"/>
  <rect x="-2132.1" y="-1122.7" width="20.577" height="38.11" fill="#eeeeec" stroke="#3465a4"/>
  <path d="m-2118.8-1120.5h5.002v10.169l-5.002-10.169z" fill="#fff"/>
  <path d="m-2112.8-1090.8v5.0017h-17.593l17.593-5.0017z" fill="#d3d7cf"/>
  <rect x="-2255.7" y="-1504.8" width="144.31" height="39.305" fill="url(#ah)"/>
 </g>
 <g transform="matrix(.46427 0 0 .3803 1211.5 1580.9)">
  <rect x="-2112.4" y="-3232.6" width="310.89" height="382.24" fill="url(#ag)"/>
  <g transform="matrix(2.3394 0 0 1 1778.3 -798)" fill="#555753">
   <rect x="-1653.3" y="-2420.2" width="113.14" height="9.1924"/>
   <rect x="-1653.3" y="-2399" width="113.14" height="9.1924"/>
   <rect x="-1653.3" y="-2272.3" width="113.14" height="9.1924"/>
   <rect x="-1653.3" y="-2251.2" width="113.14" height="9.1924"/>
   <rect x="-1653.3" y="-2230.1" width="113.14" height="9.1924"/>
   <rect x="-1653.3" y="-2209" width="113.14" height="9.1924"/>
   <rect x="-1653.3" y="-2187.9" width="113.14" height="9.1924"/>
   <rect x="-1653.3" y="-2166.7" width="113.14" height="9.1924"/>
   <rect x="-1653.3" y="-2145.6" width="113.14" height="9.1924"/>
   <rect x="-1653.3" y="-2124.5" width="113.14" height="9.1924"/>
   <rect x="-1653.3" y="-2103.4" width="113.14" height="9.1924"/>
   <rect x="-1653.3" y="-2377.9" width="113.14" height="9.1924"/>
   <rect x="-1653.3" y="-2356.8" width="113.14" height="9.1924"/>
   <rect x="-1653.3" y="-2335.7" width="113.14" height="9.1924"/>
   <rect x="-1653.3" y="-2314.6" width="113.14" height="9.1924"/>
   <rect x="-1653.3" y="-2293.4" width="113.14" height="9.1924"/>
  </g>
  <g transform="matrix(2.3394 0 0 1 1780.9 -798)" fill="#8a9da5">
   <rect x="-1638" y="-2434.1" width="2.4003" height="346"/>
   <rect x="-1560" y="-2429.5" width="2.4003" height="346"/>
   <rect x="-1612" y="-2431.9" width="2.4003" height="346"/>
   <rect x="-1586" y="-2433.3" width="2.4003" height="346"/>
  </g>
  <g transform="matrix(2.3394 0 0 1 1779.8 -798)" fill="#555753">
   <rect x="-1548.3" y="-2082.5" width="7.2542" height="28.991"/>
   <rect x="-1600.9" y="-2082.5" width="7.2542" height="28.991"/>
   <rect x="-1609.7" y="-2082.5" width="7.2542" height="28.991"/>
   <rect x="-1618.5" y="-2082.5" width="7.2542" height="28.991"/>
   <rect x="-1627.2" y="-2082.5" width="7.2542" height="28.991"/>
   <rect x="-1636" y="-2082.5" width="7.2542" height="28.991"/>
   <rect x="-1644.8" y="-2082.5" width="7.2542" height="28.991"/>
   <rect x="-1653.5" y="-2082.5" width="7.2542" height="28.991"/>
   <rect x="-1662.3" y="-2082.5" width="7.2542" height="28.991"/>
   <rect x="-1539.6" y="-2082.5" width="7.2542" height="28.991"/>
   <rect x="-1557.1" y="-2082.5" width="7.2542" height="28.991"/>
   <rect x="-1565.9" y="-2082.5" width="7.2542" height="28.991"/>
   <rect x="-1574.6" y="-2082.5" width="7.2542" height="28.991"/>
   <rect x="-1583.4" y="-2082.5" width="7.2542" height="28.991"/>
   <rect x="-1592.2" y="-2082.5" width="7.2542" height="28.991"/>
  </g>
 </g>
 <path d="m165.74 67.172c-23.948 1.386-31.99 30.034-14.674 42.048 5.5391 10.302-13.673 21.483-23.67 12.714-16.998-5.0164-37.716 2.0711-45.466 15.411-18.96-8.2888-41.864 6.2628-42.892 22.624-3.336 16.579 11.769 36.735 34.019 35.578 13.936 0.86968 21.523-17.346 36.274-6.8499 15.595 4.4652 30.186-13.23 42.477-2.3716 13.316 5.583 30.923 4.2305 41.961-4.2892 15.389 7.589 35.972-6.9393 48.888 6.3901 23.39 12.697 59.767 7.7462 74.282-12.505 12.518-1.3391 19.543 16.038 35.074 11.933 12.397 2.9509 23.908-11.319 31.189-8.864 14.474 11.725 42.002 4.3855 45.903-11.893 6.0724-15.598-10.724-35.254-31.545-32.352-17.925 8.5152-22.869-18.746-42.158-15.168-4.8557-5.0276 7.2793-16.525-0.52161-24.296-4.9194-12.084-23.389-19.147-37.154-12.444-6.5603 5.7886-13.169 18.929-23.222 7.9478-14.561-8.6231-34.804-1.1573-47.852-3.4741-14.976-11.451-38.085-15.804-57.296-9.4546-4.7796-6.6349-14.045-11.359-23.618-10.684z" fill="url(#am)"/>
 <path d="m198.82 102.52c-14.466 0.83427-19.138 20.225-8.593 28.448 3.4156 7.01-8.1229 14.507-14.223 8.5168-10.307-3.4766-22.782 1.2381-27.379 10.249-11.514-5.7042-25.262 4.0621-25.776 15.152-1.9074 11.227 7.3549 24.961 20.796 24.275 8.4288 0.65115 12.895-11.667 21.88-4.4848 9.4551 3.0964 18.158-8.838 25.658-1.4209 8.0848 3.8445 18.718 3.005 25.334-2.7233 9.351 5.2137 21.696-4.547 29.591 4.5484 14.22 8.7128 36.175 5.5161 44.815-8.152 7.5575-0.85286 11.918 10.961 21.278 8.2464 7.5121 2.0556 14.376-7.5699 18.793-5.873 8.8256 8.0144 25.416 3.1591 27.666-7.8624 3.5678-10.55-6.7134-23.952-19.279-22.077-10.778 5.695-13.946-12.812-25.58-10.471-2.9679-3.4306 4.2911-11.173-0.47492-16.477-3.0528-8.2156-14.262-13.086-22.538-8.6018-3.9271 3.8962-7.8352 12.778-13.983 5.287-8.8573-5.9115-21.044-0.93831-28.946-2.5668-9.1272-7.8305-23.123-10.884-34.692-6.6636-2.9325-4.5202-8.5639-7.7643-14.345-7.3486v-1.37e-4z" fill="url(#an)"/>
 <g transform="matrix(.70477 0 0 .57731 1003 871.18)">
  <path d="m-970.57-765.98c-22.063 12.61-36.245 32.218-36.245 54.239 0 25.651 19.226 48.029 47.755 59.886 22.063-12.61 36.245-32.218 36.245-54.239 0-25.651-19.226-48.029-47.755-59.886z" fill="#5c8c2e"/>
  <path d="m-963.81-733.92l14 143h-15l1-143z" fill="#8f5902"/>
  <path d="m-932.85-708.56l-25.918 35.971-3.329-3.1672 29.247-32.804z" fill="#8f5902"/>
  <path d="m-990.74-713.16l26.858 27.839 3.4497-2.4514-30.307-25.388z" fill="#8f5902"/>
 </g>
 <g transform="matrix(.70477 0 0 .57731 752.94 867.2)">
  <path d="m-728.06-761.98c22.063 11.458 36.245 29.273 36.245 49.282 0 23.307-19.226 43.64-47.755 54.412-22.063-11.457-36.245-29.273-36.245-49.282 0-23.307 19.226-43.64 47.755-54.412z" fill="#70781d"/>
  <path d="m-734.81-732.85l-14 129.93h15l-1-129.93z" fill="#8f5902"/>
  <path d="m-765.77-709.81l25.918 32.683 3.329-2.8778-29.247-29.806z" fill="#8f5902"/>
  <path d="m-707.89-713.99l-26.858 25.295-3.4496-2.2272 30.308-23.068z" fill="#8f5902"/>
 </g>
 <g transform="matrix(.70477 0 0 .57731 131.59 570.13)">
  <path d="m1367.2-226.72c22.063 11.458 32.245 59.273 32.245 79.282 0 23.307-15.226 13.64-43.755 24.412-22.063-11.458-39.245-3.2732-39.245-23.282 0-23.307 22.226-69.64 50.755-80.412z" fill="#9cb13c"/>
  <path d="m1360.5-197.59l-12 103.93h15l-3-103.93z" fill="#8f5902"/>
 </g>
 <path d="m1068.6 469.36l18.266 18.868 2.3462-1.6614-20.612-17.207z" fill="#8f5902"/>
 <path d="m1109.4 466.95l-18.929 14.603-2.431-1.2859 21.36-13.317z" fill="#8f5902"/>
 <g transform="matrix(.70477 0 0 .57731 770.61 714.54)">
  <path d="m-491.54-414.06l-12 103.93h15l-3-103.93z" fill="#8f5902"/>
  <path d="m-484.78-443.2c22.063 11.458 32.245 59.273 32.245 79.282 0 23.307-15.226 13.64-43.755 24.412-22.063-11.457-39.245-3.2731-39.245-23.282 0-23.307 22.226-69.64 50.755-80.412z" fill="url(#z)"/>
  <path d="m-483.53-493.41c18.304 9.5052 26.751 49.174 26.751 65.774 0 19.335-12.632 11.316-36.3 20.253-18.304-9.5052-32.558-2.7156-32.558-19.315 0-19.336 18.439-57.774 42.107-66.711z" fill="url(#ab)"/>
  <path d="m-482.05-534.08c13.417 6.9674 19.609 36.044 19.609 48.212 0 14.173-9.2591 8.2944-26.608 14.845-13.417-6.9673-23.866-1.9905-23.866-14.158 0-14.173 13.516-42.349 30.865-48.9z" fill="url(#ac)"/>
 </g>
 <g transform="matrix(.70477 0 0 .57731 901.05 889.08)">
  <path d="m-472.06-759.98c22.063 11.458 32.245 59.273 32.245 79.282 0 23.307-15.226 13.64-43.755 24.412-22.063-11.457-39.245-3.273-39.245-23.282 0-23.307 22.226-69.64 50.755-80.412z" fill="#448552"/>
  <path d="m-478.81-730.85l-12 103.93h15l-3-103.93z" fill="#8f5902"/>
  <path d="m-509.77-707.81l25.918 32.683 3.3289-2.8778-29.247-29.806z" fill="#8f5902"/>
  <path d="m-451.89-711.99l-26.858 25.295-3.4497-2.2272 30.308-23.068z" fill="#8f5902"/>
 </g>
 <g transform="matrix(.70477 0 0 .57731 942.33 885.1)">
  <path d="m-387.31-789.92c-35.07 0-59.5 22.446-59.5 41.5s35.43 24.5 70.5 24.5c23.646-7.6103 28.454 19.251 51.5 21 19.33 0 35-9.402 35-21 1.9664-19.659-30.337-15.033-30-24.5 0-19.054-32.43-41.5-67.5-41.5z" fill="#d7e0b1"/>
  <path d="m-380.93-772.92c-27.008 0-45.822 17.286-45.822 31.96s27.285 18.868 54.293 18.868c18.21-5.8608 21.913 14.825 39.661 16.172 14.886 0 26.954-7.2406 26.954-16.172 1.5144-15.14-23.363-11.578-23.104-18.868 0-14.674-24.975-31.96-51.983-31.96z" fill="#bfcd82"/>
  <path d="m-387.81-764.92l14 152h-15l1-152z" fill="#8f5902"/>
  <path d="m-336.85-729.06l-46.918 27.471-2.3289-10.667 49.247-16.804z" fill="#8f5902"/>
  <path d="m-414.74-740.16l27.358 34.339 2.9497-8.9513-30.308-25.388z" fill="#8f5902"/>
 </g>
 <g transform="matrix(-.70477 0 0 .45989 2630.3 997.46)">
  <path d="m1890.3-1214.8c-35.07 0-59.5 22.446-59.5 41.5s35.43 24.5 70.5 24.5c23.646-7.6104 28.454 19.251 51.5 21 19.33 0 35-9.4021 35-21 1.9664-19.659-30.337-15.033-30-24.5 0-19.054-32.43-41.5-67.5-41.5z" fill="#d7e0b1"/>
  <path d="m1896.7-1197.8c-27.008 0-45.822 17.286-45.822 31.96s27.285 18.868 54.293 18.868c18.21-5.8608 21.913 14.825 39.661 16.172 14.886 0 26.954-7.2407 26.954-16.172 1.5144-15.14-23.363-11.577-23.103-18.868 0-14.674-24.975-31.96-51.983-31.96z" fill="#bfcd82"/>
  <path d="m1889.8-1189.8l14 152h-15l1-152z" fill="#8f5902"/>
  <path d="m1940.8-1154l-46.918 27.471-2.3292-10.667 49.247-16.804z" fill="#8f5902"/>
  <path d="m1862.9-1165.1l27.358 34.339 2.9497-8.9513-30.308-25.388z" fill="#8f5902"/>
 </g>
 <g transform="matrix(-.94252 0 0 .57731 2242.2 703.96)">
  <path d="m1498.8-414.06l-12 103.93h15l-3-103.93z" fill="#8f5902"/>
  <path d="m1505.6-443.2c22.063 11.458 32.245 59.273 32.245 79.282 0 23.307-15.226 13.64-43.755 24.412-22.063-11.457-39.245-3.2731-39.245-23.282 0-23.307 22.226-69.64 50.755-80.412z" fill="url(#z)"/>
  <path d="m1506.8-493.41c18.304 9.5052 26.751 49.174 26.751 65.774 0 19.335-12.632 11.316-36.3 20.253-18.304-9.5052-32.558-2.7156-32.558-19.315 0-19.336 18.439-57.774 42.107-66.711z" fill="url(#ab)"/>
  <path d="m1508.3-534.08c13.417 6.9674 19.609 36.044 19.609 48.212 0 14.173-9.2592 8.2944-26.608 14.845-13.417-6.9673-23.865-1.9905-23.865-14.158 0-14.173 13.516-42.349 30.864-48.9z" fill="url(#ac)"/>
 </g>
 <g transform="matrix(-.94252 0 0 .57731 1550.3 711.91)">
  <path d="m1498.8-414.06l-12 103.93h15l-3-103.93z" fill="#8f5902"/>
  <path d="m1505.6-443.2c22.063 11.458 32.245 59.273 32.245 79.282 0 23.307-15.226 13.64-43.755 24.412-22.063-11.457-39.245-3.2731-39.245-23.282 0-23.307 22.226-69.64 50.755-80.412z" fill="url(#z)"/>
  <path d="m1506.8-493.41c18.304 9.5052 26.751 49.174 26.751 65.774 0 19.335-12.632 11.316-36.3 20.253-18.304-9.5052-32.558-2.7156-32.558-19.315 0-19.336 18.439-57.774 42.107-66.711z" fill="url(#ab)"/>
  <path d="m1508.3-534.08c13.417 6.9674 19.609 36.044 19.609 48.212 0 14.173-9.2592 8.2944-26.608 14.845-13.417-6.9673-23.865-1.9905-23.865-14.158 0-14.173 13.516-42.349 30.864-48.9z" fill="url(#ac)"/>
 </g>
 <g transform="matrix(1.4026 0 0 1.1489 812.99 290.86)">
  <g transform="matrix(.58053 0 0 .58053 107.88 450.24)">
   <path d="m-574.93-538.2c22.063 11.458 32.245 59.273 32.245 79.282 0 23.307-15.226 13.64-43.755 24.412-22.063-11.458-39.245-3.2732-39.245-23.282 0-23.307 22.226-69.64 50.755-80.412z" fill="#9cb13c"/>
   <path d="m-581.69-509.07l-12 103.93h15l-3-103.93z" fill="#8f5902"/>
  </g>
  <path d="m-247.79 168.08l15.046 18.974 1.9326-1.6707-16.979-17.303z" fill="#8f5902"/>
  <path d="m-214.18 165.66l-15.592 14.684-2.0026-1.293 17.594-13.392z" fill="#8f5902"/>
 </g>
 <g transform="matrix(.70477 0 0 .57731 1440.1 863.23)">
  <path d="m-728.06-761.98c22.063 11.458 36.245 29.273 36.245 49.282 0 23.307-19.226 43.64-47.755 54.412-22.063-11.457-36.245-29.273-36.245-49.282 0-23.307 19.226-43.64 47.755-54.412z" fill="#70781d"/>
  <path d="m-734.81-732.85l-14 129.93h15l-1-129.93z" fill="#8f5902"/>
  <path d="m-765.77-709.81l25.918 32.683 3.329-2.8778-29.247-29.806z" fill="#8f5902"/>
  <path d="m-707.89-713.99l-26.858 25.295-3.4496-2.2272 30.308-23.068z" fill="#8f5902"/>
 </g>
 <g transform="matrix(-.89025 0 0 .58092 2469.7 878.16)">
  <path d="m1653-779.56c-35.07 0-59.5 22.446-59.5 41.5s35.43 24.5 70.5 24.5c23.646-7.6104 28.454 19.251 51.5 21 19.33 0 35-9.4021 35-21 1.9666-19.659-30.337-15.033-30-24.5 0-19.054-32.43-41.5-67.5-41.5z" fill="#d7e0b1"/>
  <path d="m1659.4-762.56c-27.008 0-45.822 17.286-45.822 31.96s27.285 18.868 54.293 18.868c18.21-5.8607 21.913 14.825 39.661 16.172 14.886 0 26.954-7.2407 26.954-16.172 1.5144-15.14-23.363-11.577-23.104-18.868 0-14.674-24.975-31.96-51.983-31.96z" fill="#bfcd82"/>
  <path d="m1652.5-754.56l14 152h-15l1-152z" fill="#8f5902"/>
  <path d="m1703.5-718.71l-46.918 27.471-2.3286-10.667 49.247-16.804z" fill="#8f5902"/>
  <path d="m1625.6-729.81l27.358 34.339 2.9497-8.9513-30.308-25.388z" fill="#8f5902"/>
 </g>
 <g transform="matrix(-.60904 0 0 .37304 1945.4 962.66)">
  <path d="m1965.1-1325.4l-12 103.93h15l-3-103.93z" fill="#8f5902"/>
  <path d="m1971.8-1354.5c22.064 11.458 32.245 59.273 32.245 79.282 0 23.307-15.226 13.64-43.755 24.412-22.063-11.457-39.245-3.2732-39.245-23.282 0-23.307 22.226-69.64 50.755-80.412z" fill="url(#z)"/>
  <path d="m1973.1-1404.7c18.304 9.5052 26.751 49.174 26.751 65.773 0 19.335-12.632 11.316-36.3 20.253-18.304-9.5051-32.558-2.7156-32.558-19.315 0-19.335 18.439-57.774 42.107-66.711z" fill="url(#ab)"/>
  <path d="m1974.6-1445.4c13.417 6.9674 19.609 36.045 19.609 48.212 0 14.173-9.259 8.2943-26.608 14.846-13.417-6.9673-23.865-1.9907-23.865-14.158 0-14.173 13.516-42.348 30.864-48.899z" fill="url(#ac)"/>
 </g>
 <path d="m42.272 301.78c-5.1864-0.009949-10.096 2.6403-12.701 6.2555-8.8785-2.9343-19.177-1.9265-27.405 1.9521v59.871c7.384-3.0885 17.228 2.4989 24.86-1.2644 6.4155 4.9518 16.633 5.7294 24.372 2.4844 7.144-6.3108 15.633 3.9705 24.697 1.3753 8.5734-6.1003 12.969 4.4984 21.068 3.993 12.932 0.6723 21.735-11.038 19.796-20.674-0.59766-9.5096-13.921-17.972-24.941-13.154-4.5049-7.753-16.551-11.877-26.43-8.9617-5.8104 5.0966-16.976-1.3993-13.757-7.3868 10.064-6.9827 5.3888-23.64-8.5303-24.445-0.34772-0.02475-0.68335-0.043701-1.029-0.044647v3.36e-4z" fill="url(#at)"/>
</svg>
